<svg xmlns="http://www.w3.org/2000/svg" width="930" height="500" viewBox="0 0 930 500">
<rect width="100%" height="100%" fill="white" />
<text x="465.0" y="34.0" font-family="Arial, sans-serif" font-size="20" fill="#111827" text-anchor="middle">Final Stacking Per-Class Test Performance</text>
<rect x="72.0" y="398.0" width="798.0" height="1.0" fill="#9CA3AF" stroke="none" />
<rect x="712.0" y="48.0" width="15.0" height="10.0" fill="#10B981" stroke="none" />
<text x="734.0" y="57.0" font-family="Arial, sans-serif" font-size="12" fill="#374151" text-anchor="start">F1</text>
<rect x="772.0" y="48.0" width="15.0" height="10.0" fill="#6366F1" stroke="none" />
<text x="794.0" y="57.0" font-family="Arial, sans-serif" font-size="12" fill="#374151" text-anchor="start">Recall</text>
<rect x="72.0" y="340.6" width="798.0" height="1.0" fill="#E5E7EB" stroke="none" />
<text x="62.0" y="344.6" font-family="Arial, sans-serif" font-size="10" fill="#6B7280" text-anchor="end">0.6</text>
<rect x="72.0" y="268.9" width="798.0" height="1.0" fill="#E5E7EB" stroke="none" />
<text x="62.0" y="272.9" font-family="Arial, sans-serif" font-size="10" fill="#6B7280" text-anchor="end">0.7</text>
<rect x="72.0" y="197.1" width="798.0" height="1.0" fill="#E5E7EB" stroke="none" />
<text x="62.0" y="201.1" font-family="Arial, sans-serif" font-size="10" fill="#6B7280" text-anchor="end">0.8</text>
<rect x="72.0" y="125.4" width="798.0" height="1.0" fill="#E5E7EB" stroke="none" />
<text x="62.0" y="129.4" font-family="Arial, sans-serif" font-size="10" fill="#6B7280" text-anchor="end">0.9</text>
<rect x="84.0" y="180.6" width="22.0" height="217.4" fill="#10B981" stroke="none" />
<rect x="110.0" y="180.6" width="22.0" height="217.4" fill="#6366F1" stroke="none" />
<text x="108.0" y="420.0" font-family="Arial, sans-serif" font-size="10" fill="#111827" text-anchor="middle">battery</text>
<text x="95.0" y="175.6" font-family="Arial, sans-serif" font-size="9" fill="#111827" text-anchor="middle">0.82</text>
<rect x="162.0" y="186.0" width="22.0" height="212.0" fill="#10B981" stroke="none" />
<rect x="188.0" y="197.1" width="22.0" height="200.9" fill="#6366F1" stroke="none" />
<text x="186.0" y="420.0" font-family="Arial, sans-serif" font-size="10" fill="#111827" text-anchor="middle">biological</text>
<text x="173.0" y="181.0" font-family="Arial, sans-serif" font-size="9" fill="#111827" text-anchor="middle">0.82</text>
<rect x="240.0" y="168.4" width="22.0" height="229.6" fill="#10B981" stroke="none" />
<rect x="266.0" y="175.5" width="22.0" height="222.5" fill="#6366F1" stroke="none" />
<text x="264.0" y="420.0" font-family="Arial, sans-serif" font-size="10" fill="#111827" text-anchor="middle">cardboard</text>
<text x="251.0" y="163.4" font-family="Arial, sans-serif" font-size="9" fill="#111827" text-anchor="middle">0.84</text>
<rect x="318.0" y="106.9" width="22.0" height="291.1" fill="#10B981" stroke="none" />
<rect x="344.0" y="94.1" width="22.0" height="303.9" fill="#6366F1" stroke="none" />
<text x="342.0" y="420.0" font-family="Arial, sans-serif" font-size="10" fill="#111827" text-anchor="middle">clothes</text>
<text x="329.0" y="101.9" font-family="Arial, sans-serif" font-size="9" fill="#111827" text-anchor="middle">0.93</text>
<rect x="396.0" y="177.1" width="22.0" height="220.9" fill="#10B981" stroke="none" />
<rect x="422.0" y="166.8" width="22.0" height="231.2" fill="#6366F1" stroke="none" />
<text x="420.0" y="420.0" font-family="Arial, sans-serif" font-size="10" fill="#111827" text-anchor="middle">glass</text>
<text x="407.0" y="172.1" font-family="Arial, sans-serif" font-size="9" fill="#111827" text-anchor="middle">0.83</text>
<rect x="474.0" y="226.8" width="22.0" height="171.2" fill="#10B981" stroke="none" />
<rect x="500.0" y="207.4" width="22.0" height="190.6" fill="#6366F1" stroke="none" />
<text x="498.0" y="420.0" font-family="Arial, sans-serif" font-size="10" fill="#111827" text-anchor="middle">metal</text>
<text x="485.0" y="221.8" font-family="Arial, sans-serif" font-size="9" fill="#111827" text-anchor="middle">0.76</text>
<rect x="552.0" y="187.2" width="22.0" height="210.8" fill="#10B981" stroke="none" />
<rect x="578.0" y="182.8" width="22.0" height="215.2" fill="#6366F1" stroke="none" />
<text x="576.0" y="420.0" font-family="Arial, sans-serif" font-size="10" fill="#111827" text-anchor="middle">paper</text>
<text x="563.0" y="182.2" font-family="Arial, sans-serif" font-size="9" fill="#111827" text-anchor="middle">0.81</text>
<rect x="630.0" y="232.6" width="22.0" height="165.4" fill="#10B981" stroke="none" />
<rect x="656.0" y="245.0" width="22.0" height="153.0" fill="#6366F1" stroke="none" />
<text x="654.0" y="420.0" font-family="Arial, sans-serif" font-size="10" fill="#111827" text-anchor="middle">plastic</text>
<text x="641.0" y="227.6" font-family="Arial, sans-serif" font-size="9" fill="#111827" text-anchor="middle">0.75</text>
<rect x="708.0" y="172.4" width="22.0" height="225.6" fill="#10B981" stroke="none" />
<rect x="734.0" y="162.7" width="22.0" height="235.3" fill="#6366F1" stroke="none" />
<text x="732.0" y="420.0" font-family="Arial, sans-serif" font-size="10" fill="#111827" text-anchor="middle">shoes</text>
<text x="719.0" y="167.4" font-family="Arial, sans-serif" font-size="9" fill="#111827" text-anchor="middle">0.83</text>
<rect x="786.0" y="263.9" width="22.0" height="134.1" fill="#10B981" stroke="none" />
<rect x="812.0" y="338.5" width="22.0" height="59.5" fill="#6366F1" stroke="none" />
<text x="810.0" y="420.0" font-family="Arial, sans-serif" font-size="10" fill="#111827" text-anchor="middle">trash</text>
<text x="797.0" y="258.9" font-family="Arial, sans-serif" font-size="9" fill="#111827" text-anchor="middle">0.71</text>
</svg>