<?xml version="1.0" encoding="utf-8" standalone="no"?>
<!DOCTYPE svg PUBLIC "-//W3C//DTD SVG 1.1//EN"
  "http://www.w3.org/Graphics/SVG/1.1/DTD/svg11.dtd">
<svg xmlns:xlink="http://www.w3.org/1999/xlink" width="990.9pt" height="247.248pt" viewBox="0 0 990.9 247.248" xmlns="http://www.w3.org/2000/svg" version="1.1">
 <metadata>
  <rdf:RDF xmlns:dc="http://purl.org/dc/elements/1.1/" xmlns:cc="http://creativecommons.org/ns#" xmlns:rdf="http://www.w3.org/1999/02/22-rdf-syntax-ns#">
   <cc:Work>
    <dc:type rdf:resource="http://purl.org/dc/dcmitype/StillImage"/>
    <dc:date>2026-06-13T19:14:16.360726</dc:date>
    <dc:format>image/svg+xml</dc:format>
    <dc:creator>
     <cc:Agent>
      <dc:title>Matplotlib v3.10.3, https://matplotlib.org/</dc:title>
     </cc:Agent>
    </dc:creator>
   </cc:Work>
  </rdf:RDF>
 </metadata>
 <defs>
  <style type="text/css">*{stroke-linejoin: round; stroke-linecap: butt}</style>
 </defs>
 <g id="figure_1">
  <g id="patch_1">
   <path d="M 0 247.248 
L 990.9 247.248 
L 990.9 0 
L 0 0 
z
" style="fill: #ffffff"/>
  </g>
  <g id="axes_1">
   <g id="patch_2">
    <path d="M 14.105127 205.84845 
L 93.514084 205.84845 
Q 96.678933 205.84845 96.678933 197.8443 
L 96.678933 98.8839 
Q 96.678933 90.87975 93.514084 90.87975 
L 14.105127 90.87975 
Q 10.940277 90.87975 10.940277 98.8839 
L 10.940277 197.8443 
Q 10.940277 205.84845 14.105127 205.84845 
z
" clip-path="url(#pfb23797b26)" style="fill: #eaf2f8; stroke: #2f3a4a; stroke-width: 1.35; stroke-linejoin: miter"/>
   </g>
   <g id="patch_3">
    <path d="M 96.662255 148.3641 
Q 101.752133 148.3641 105.444469 148.3641 
" clip-path="url(#pfb23797b26)" style="fill: none; stroke: #2f3a4a; stroke-width: 1.25; stroke-linecap: round"/>
    <path d="M 100.244469 145.7641 
L 105.444469 148.3641 
L 100.244469 150.9641 
" clip-path="url(#pfb23797b26)" style="fill: none; stroke: #2f3a4a; stroke-width: 1.25; stroke-linecap: round"/>
   </g>
   <g id="patch_4">
    <path d="M 111.927755 205.84845 
L 191.336712 205.84845 
Q 194.501562 205.84845 194.501562 197.8443 
L 194.501562 98.8839 
Q 194.501562 90.87975 191.336712 90.87975 
L 111.927755 90.87975 
Q 108.762905 90.87975 108.762905 98.8839 
L 108.762905 197.8443 
Q 108.762905 205.84845 111.927755 205.84845 
z
" clip-path="url(#pfb23797b26)" style="fill: #eaf2f8; stroke: #2f3a4a; stroke-width: 1.35; stroke-linejoin: miter"/>
   </g>
   <g id="patch_5">
    <path d="M 194.484883 148.3641 
Q 199.574761 148.3641 203.267097 148.3641 
" clip-path="url(#pfb23797b26)" style="fill: none; stroke: #2f3a4a; stroke-width: 1.25; stroke-linecap: round"/>
    <path d="M 198.067097 145.7641 
L 203.267097 148.3641 
L 198.067097 150.9641 
" clip-path="url(#pfb23797b26)" style="fill: none; stroke: #2f3a4a; stroke-width: 1.25; stroke-linecap: round"/>
   </g>
   <g id="patch_6">
    <path d="M 209.750383 205.84845 
L 289.15934 205.84845 
Q 292.32419 205.84845 292.32419 197.8443 
L 292.32419 98.8839 
Q 292.32419 90.87975 289.15934 90.87975 
L 209.750383 90.87975 
Q 206.585533 90.87975 206.585533 98.8839 
L 206.585533 197.8443 
Q 206.585533 205.84845 209.750383 205.84845 
z
" clip-path="url(#pfb23797b26)" style="fill: #e8f5e9; stroke: #2f3a4a; stroke-width: 1.35; stroke-linejoin: miter"/>
   </g>
   <g id="patch_7">
    <path d="M 292.307511 148.3641 
Q 297.397389 148.3641 301.089725 148.3641 
" clip-path="url(#pfb23797b26)" style="fill: none; stroke: #2f3a4a; stroke-width: 1.25; stroke-linecap: round"/>
    <path d="M 295.889725 145.7641 
L 301.089725 148.3641 
L 295.889725 150.9641 
" clip-path="url(#pfb23797b26)" style="fill: none; stroke: #2f3a4a; stroke-width: 1.25; stroke-linecap: round"/>
   </g>
   <g id="patch_8">
    <path d="M 307.573011 205.84845 
L 386.981968 205.84845 
Q 390.146818 205.84845 390.146818 197.8443 
L 390.146818 98.8839 
Q 390.146818 90.87975 386.981968 90.87975 
L 307.573011 90.87975 
Q 304.408161 90.87975 304.408161 98.8839 
L 304.408161 197.8443 
Q 304.408161 205.84845 307.573011 205.84845 
z
" clip-path="url(#pfb23797b26)" style="fill: #fff4e6; stroke: #2f3a4a; stroke-width: 1.35; stroke-linejoin: miter"/>
   </g>
   <g id="patch_9">
    <path d="M 390.13014 148.3641 
Q 395.220018 148.3641 398.912353 148.3641 
" clip-path="url(#pfb23797b26)" style="fill: none; stroke: #2f3a4a; stroke-width: 1.25; stroke-linecap: round"/>
    <path d="M 393.712353 145.7641 
L 398.912353 148.3641 
L 393.712353 150.9641 
" clip-path="url(#pfb23797b26)" style="fill: none; stroke: #2f3a4a; stroke-width: 1.25; stroke-linecap: round"/>
   </g>
   <g id="patch_10">
    <path d="M 405.395639 205.84845 
L 484.804596 205.84845 
Q 487.969446 205.84845 487.969446 197.8443 
L 487.969446 98.8839 
Q 487.969446 90.87975 484.804596 90.87975 
L 405.395639 90.87975 
Q 402.23079 90.87975 402.23079 98.8839 
L 402.23079 197.8443 
Q 402.23079 205.84845 405.395639 205.84845 
z
" clip-path="url(#pfb23797b26)" style="fill: #fff4e6; stroke: #2f3a4a; stroke-width: 1.35; stroke-linejoin: miter"/>
   </g>
   <g id="patch_11">
    <path d="M 487.952768 148.3641 
Q 493.042646 148.3641 496.734981 148.3641 
" clip-path="url(#pfb23797b26)" style="fill: none; stroke: #2f3a4a; stroke-width: 1.25; stroke-linecap: round"/>
    <path d="M 491.534981 145.7641 
L 496.734981 148.3641 
L 491.534981 150.9641 
" clip-path="url(#pfb23797b26)" style="fill: none; stroke: #2f3a4a; stroke-width: 1.25; stroke-linecap: round"/>
   </g>
   <g id="patch_12">
    <path d="M 503.218268 205.84845 
L 582.627225 205.84845 
Q 585.792074 205.84845 585.792074 197.8443 
L 585.792074 98.8839 
Q 585.792074 90.87975 582.627225 90.87975 
L 503.218268 90.87975 
Q 500.053418 90.87975 500.053418 98.8839 
L 500.053418 197.8443 
Q 500.053418 205.84845 503.218268 205.84845 
z
" clip-path="url(#pfb23797b26)" style="fill: #fff4e6; stroke: #2f3a4a; stroke-width: 1.35; stroke-linejoin: miter"/>
   </g>
   <g id="patch_13">
    <path d="M 585.775396 148.3641 
Q 590.865274 148.3641 594.55761 148.3641 
" clip-path="url(#pfb23797b26)" style="fill: none; stroke: #2f3a4a; stroke-width: 1.25; stroke-linecap: round"/>
    <path d="M 589.35761 145.7641 
L 594.55761 148.3641 
L 589.35761 150.9641 
" clip-path="url(#pfb23797b26)" style="fill: none; stroke: #2f3a4a; stroke-width: 1.25; stroke-linecap: round"/>
   </g>
   <g id="patch_14">
    <path d="M 601.040896 205.84845 
L 680.449853 205.84845 
Q 683.614702 205.84845 683.614702 197.8443 
L 683.614702 98.8839 
Q 683.614702 90.87975 680.449853 90.87975 
L 601.040896 90.87975 
Q 597.876046 90.87975 597.876046 98.8839 
L 597.876046 197.8443 
Q 597.876046 205.84845 601.040896 205.84845 
z
" clip-path="url(#pfb23797b26)" style="fill: #fdedec; stroke: #2f3a4a; stroke-width: 1.35; stroke-linejoin: miter"/>
   </g>
   <g id="patch_15">
    <path d="M 683.598024 148.3641 
Q 688.687902 148.3641 692.380238 148.3641 
" clip-path="url(#pfb23797b26)" style="fill: none; stroke: #2f3a4a; stroke-width: 1.25; stroke-linecap: round"/>
    <path d="M 687.180238 145.7641 
L 692.380238 148.3641 
L 687.180238 150.9641 
" clip-path="url(#pfb23797b26)" style="fill: none; stroke: #2f3a4a; stroke-width: 1.25; stroke-linecap: round"/>
   </g>
   <g id="patch_16">
    <path d="M 698.863524 205.84845 
L 778.272481 205.84845 
Q 781.437331 205.84845 781.437331 197.8443 
L 781.437331 98.8839 
Q 781.437331 90.87975 778.272481 90.87975 
L 698.863524 90.87975 
Q 695.698674 90.87975 695.698674 98.8839 
L 695.698674 197.8443 
Q 695.698674 205.84845 698.863524 205.84845 
z
" clip-path="url(#pfb23797b26)" style="fill: #fdedec; stroke: #2f3a4a; stroke-width: 1.35; stroke-linejoin: miter"/>
   </g>
   <g id="patch_17">
    <path d="M 781.420652 148.3641 
Q 786.51053 148.3641 790.202866 148.3641 
" clip-path="url(#pfb23797b26)" style="fill: none; stroke: #2f3a4a; stroke-width: 1.25; stroke-linecap: round"/>
    <path d="M 785.002866 145.7641 
L 790.202866 148.3641 
L 785.002866 150.9641 
" clip-path="url(#pfb23797b26)" style="fill: none; stroke: #2f3a4a; stroke-width: 1.25; stroke-linecap: round"/>
   </g>
   <g id="patch_18">
    <path d="M 796.686152 205.84845 
L 876.095109 205.84845 
Q 879.259959 205.84845 879.259959 197.8443 
L 879.259959 98.8839 
Q 879.259959 90.87975 876.095109 90.87975 
L 796.686152 90.87975 
Q 793.521302 90.87975 793.521302 98.8839 
L 793.521302 197.8443 
Q 793.521302 205.84845 796.686152 205.84845 
z
" clip-path="url(#pfb23797b26)" style="fill: #f3e8ff; stroke: #2f3a4a; stroke-width: 1.35; stroke-linejoin: miter"/>
   </g>
   <g id="patch_19">
    <path d="M 879.24328 148.3641 
Q 884.333158 148.3641 888.025494 148.3641 
" clip-path="url(#pfb23797b26)" style="fill: none; stroke: #2f3a4a; stroke-width: 1.25; stroke-linecap: round"/>
    <path d="M 882.825494 145.7641 
L 888.025494 148.3641 
L 882.825494 150.9641 
" clip-path="url(#pfb23797b26)" style="fill: none; stroke: #2f3a4a; stroke-width: 1.25; stroke-linecap: round"/>
   </g>
   <g id="patch_20">
    <path d="M 894.50878 205.84845 
L 973.917737 205.84845 
Q 977.082587 205.84845 977.082587 197.8443 
L 977.082587 98.8839 
Q 977.082587 90.87975 973.917737 90.87975 
L 894.50878 90.87975 
Q 891.34393 90.87975 891.34393 98.8839 
L 891.34393 197.8443 
Q 891.34393 205.84845 894.50878 205.84845 
z
" clip-path="url(#pfb23797b26)" style="fill: #eaf2f8; stroke: #2f3a4a; stroke-width: 1.35; stroke-linejoin: miter"/>
   </g>
   <g id="text_1">
    <!-- Data Review -->
    <g transform="translate(20.31691 133.092753) scale(0.095 -0.095)">
     <defs>
      <path id="DejaVuSans-Bold-44" d="M 1791 3756 
L 1791 909 
L 2222 909 
Q 2959 909 3348 1275 
Q 3738 1641 3738 2338 
Q 3738 3031 3350 3393 
Q 2963 3756 2222 3756 
L 1791 3756 
z
M 588 4666 
L 1856 4666 
Q 2919 4666 3439 4514 
Q 3959 4363 4331 4000 
Q 4659 3684 4818 3271 
Q 4978 2859 4978 2338 
Q 4978 1809 4818 1395 
Q 4659 981 4331 666 
Q 3956 303 3431 151 
Q 2906 0 1856 0 
L 588 0 
L 588 4666 
z
" transform="scale(0.015625)"/>
      <path id="DejaVuSans-Bold-61" d="M 2106 1575 
Q 1756 1575 1579 1456 
Q 1403 1338 1403 1106 
Q 1403 894 1545 773 
Q 1688 653 1941 653 
Q 2256 653 2472 879 
Q 2688 1106 2688 1447 
L 2688 1575 
L 2106 1575 
z
M 3816 1997 
L 3816 0 
L 2688 0 
L 2688 519 
Q 2463 200 2181 54 
Q 1900 -91 1497 -91 
Q 953 -91 614 226 
Q 275 544 275 1050 
Q 275 1666 698 1953 
Q 1122 2241 2028 2241 
L 2688 2241 
L 2688 2328 
Q 2688 2594 2478 2717 
Q 2269 2841 1825 2841 
Q 1466 2841 1156 2769 
Q 847 2697 581 2553 
L 581 3406 
Q 941 3494 1303 3539 
Q 1666 3584 2028 3584 
Q 2975 3584 3395 3211 
Q 3816 2838 3816 1997 
z
" transform="scale(0.015625)"/>
      <path id="DejaVuSans-Bold-74" d="M 1759 4494 
L 1759 3500 
L 2913 3500 
L 2913 2700 
L 1759 2700 
L 1759 1216 
Q 1759 972 1856 886 
Q 1953 800 2241 800 
L 2816 800 
L 2816 0 
L 1856 0 
Q 1194 0 917 276 
Q 641 553 641 1216 
L 641 2700 
L 84 2700 
L 84 3500 
L 641 3500 
L 641 4494 
L 1759 4494 
z
" transform="scale(0.015625)"/>
      <path id="DejaVuSans-Bold-20" transform="scale(0.015625)"/>
      <path id="DejaVuSans-Bold-52" d="M 2297 2597 
Q 2675 2597 2839 2737 
Q 3003 2878 3003 3200 
Q 3003 3519 2839 3656 
Q 2675 3794 2297 3794 
L 1791 3794 
L 1791 2597 
L 2297 2597 
z
M 1791 1766 
L 1791 0 
L 588 0 
L 588 4666 
L 2425 4666 
Q 3347 4666 3776 4356 
Q 4206 4047 4206 3378 
Q 4206 2916 3982 2619 
Q 3759 2322 3309 2181 
Q 3556 2125 3751 1926 
Q 3947 1728 4147 1325 
L 4800 0 
L 3519 0 
L 2950 1159 
Q 2778 1509 2601 1637 
Q 2425 1766 2131 1766 
L 1791 1766 
z
" transform="scale(0.015625)"/>
      <path id="DejaVuSans-Bold-65" d="M 4031 1759 
L 4031 1441 
L 1416 1441 
Q 1456 1047 1700 850 
Q 1944 653 2381 653 
Q 2734 653 3104 758 
Q 3475 863 3866 1075 
L 3866 213 
Q 3469 63 3072 -14 
Q 2675 -91 2278 -91 
Q 1328 -91 801 392 
Q 275 875 275 1747 
Q 275 2603 792 3093 
Q 1309 3584 2216 3584 
Q 3041 3584 3536 3087 
Q 4031 2591 4031 1759 
z
M 2881 2131 
Q 2881 2450 2695 2645 
Q 2509 2841 2209 2841 
Q 1884 2841 1681 2658 
Q 1478 2475 1428 2131 
L 2881 2131 
z
" transform="scale(0.015625)"/>
      <path id="DejaVuSans-Bold-76" d="M 97 3500 
L 1216 3500 
L 2088 1081 
L 2956 3500 
L 4078 3500 
L 2700 0 
L 1472 0 
L 97 3500 
z
" transform="scale(0.015625)"/>
      <path id="DejaVuSans-Bold-69" d="M 538 3500 
L 1656 3500 
L 1656 0 
L 538 0 
L 538 3500 
z
M 538 4863 
L 1656 4863 
L 1656 3950 
L 538 3950 
L 538 4863 
z
" transform="scale(0.015625)"/>
      <path id="DejaVuSans-Bold-77" d="M 225 3500 
L 1313 3500 
L 1900 1088 
L 2491 3500 
L 3425 3500 
L 4013 1113 
L 4603 3500 
L 5691 3500 
L 4769 0 
L 3547 0 
L 2956 2406 
L 2369 0 
L 1147 0 
L 225 3500 
z
" transform="scale(0.015625)"/>
     </defs>
     <use xlink:href="#DejaVuSans-Bold-44"/>
     <use xlink:href="#DejaVuSans-Bold-61" transform="translate(83.007812 0)"/>
     <use xlink:href="#DejaVuSans-Bold-74" transform="translate(150.488281 0)"/>
     <use xlink:href="#DejaVuSans-Bold-61" transform="translate(198.291016 0)"/>
     <use xlink:href="#DejaVuSans-Bold-20" transform="translate(265.771484 0)"/>
     <use xlink:href="#DejaVuSans-Bold-52" transform="translate(300.585938 0)"/>
     <use xlink:href="#DejaVuSans-Bold-65" transform="translate(377.587891 0)"/>
     <use xlink:href="#DejaVuSans-Bold-76" transform="translate(445.410156 0)"/>
     <use xlink:href="#DejaVuSans-Bold-69" transform="translate(510.595703 0)"/>
     <use xlink:href="#DejaVuSans-Bold-65" transform="translate(544.873047 0)"/>
     <use xlink:href="#DejaVuSans-Bold-77" transform="translate(612.695312 0)"/>
    </g>
    <!-- Fixed Split -->
    <g transform="translate(25.249488 143.730675) scale(0.095 -0.095)">
     <defs>
      <path id="DejaVuSans-Bold-46" d="M 588 4666 
L 3834 4666 
L 3834 3756 
L 1791 3756 
L 1791 2888 
L 3713 2888 
L 3713 1978 
L 1791 1978 
L 1791 0 
L 588 0 
L 588 4666 
z
" transform="scale(0.015625)"/>
      <path id="DejaVuSans-Bold-78" d="M 1422 1791 
L 159 3500 
L 1344 3500 
L 2059 2463 
L 2784 3500 
L 3969 3500 
L 2706 1797 
L 4031 0 
L 2847 0 
L 2059 1106 
L 1281 0 
L 97 0 
L 1422 1791 
z
" transform="scale(0.015625)"/>
      <path id="DejaVuSans-Bold-64" d="M 2919 2988 
L 2919 4863 
L 4044 4863 
L 4044 0 
L 2919 0 
L 2919 506 
Q 2688 197 2409 53 
Q 2131 -91 1766 -91 
Q 1119 -91 703 423 
Q 288 938 288 1747 
Q 288 2556 703 3070 
Q 1119 3584 1766 3584 
Q 2128 3584 2408 3439 
Q 2688 3294 2919 2988 
z
M 2181 722 
Q 2541 722 2730 984 
Q 2919 1247 2919 1747 
Q 2919 2247 2730 2509 
Q 2541 2772 2181 2772 
Q 1825 2772 1636 2509 
Q 1447 2247 1447 1747 
Q 1447 1247 1636 984 
Q 1825 722 2181 722 
z
" transform="scale(0.015625)"/>
      <path id="DejaVuSans-Bold-53" d="M 3834 4519 
L 3834 3531 
Q 3450 3703 3084 3790 
Q 2719 3878 2394 3878 
Q 1963 3878 1756 3759 
Q 1550 3641 1550 3391 
Q 1550 3203 1689 3098 
Q 1828 2994 2194 2919 
L 2706 2816 
Q 3484 2659 3812 2340 
Q 4141 2022 4141 1434 
Q 4141 663 3683 286 
Q 3225 -91 2284 -91 
Q 1841 -91 1394 -6 
Q 947 78 500 244 
L 500 1259 
Q 947 1022 1364 901 
Q 1781 781 2169 781 
Q 2563 781 2772 912 
Q 2981 1044 2981 1288 
Q 2981 1506 2839 1625 
Q 2697 1744 2272 1838 
L 1806 1941 
Q 1106 2091 782 2419 
Q 459 2747 459 3303 
Q 459 4000 909 4375 
Q 1359 4750 2203 4750 
Q 2588 4750 2994 4692 
Q 3400 4634 3834 4519 
z
" transform="scale(0.015625)"/>
      <path id="DejaVuSans-Bold-70" d="M 1656 506 
L 1656 -1331 
L 538 -1331 
L 538 3500 
L 1656 3500 
L 1656 2988 
Q 1888 3294 2169 3439 
Q 2450 3584 2816 3584 
Q 3463 3584 3878 3070 
Q 4294 2556 4294 1747 
Q 4294 938 3878 423 
Q 3463 -91 2816 -91 
Q 2450 -91 2169 54 
Q 1888 200 1656 506 
z
M 2400 2772 
Q 2041 2772 1848 2508 
Q 1656 2244 1656 1747 
Q 1656 1250 1848 986 
Q 2041 722 2400 722 
Q 2759 722 2948 984 
Q 3138 1247 3138 1747 
Q 3138 2247 2948 2509 
Q 2759 2772 2400 2772 
z
" transform="scale(0.015625)"/>
      <path id="DejaVuSans-Bold-6c" d="M 538 4863 
L 1656 4863 
L 1656 0 
L 538 0 
L 538 4863 
z
" transform="scale(0.015625)"/>
     </defs>
     <use xlink:href="#DejaVuSans-Bold-46"/>
     <use xlink:href="#DejaVuSans-Bold-69" transform="translate(68.310547 0)"/>
     <use xlink:href="#DejaVuSans-Bold-78" transform="translate(102.587891 0)"/>
     <use xlink:href="#DejaVuSans-Bold-65" transform="translate(167.089844 0)"/>
     <use xlink:href="#DejaVuSans-Bold-64" transform="translate(234.912109 0)"/>
     <use xlink:href="#DejaVuSans-Bold-20" transform="translate(306.494141 0)"/>
     <use xlink:href="#DejaVuSans-Bold-53" transform="translate(341.308594 0)"/>
     <use xlink:href="#DejaVuSans-Bold-70" transform="translate(413.330078 0)"/>
     <use xlink:href="#DejaVuSans-Bold-6c" transform="translate(484.912109 0)"/>
     <use xlink:href="#DejaVuSans-Bold-69" transform="translate(519.189453 0)"/>
     <use xlink:href="#DejaVuSans-Bold-74" transform="translate(553.466797 0)"/>
    </g>
   </g>
   <g id="text_2">
    <!-- 12259 images -->
    <g style="fill: #46515f" transform="translate(24.556746 172.231084) scale(0.082 -0.082)">
     <defs>
      <path id="DejaVuSans-31" d="M 794 531 
L 1825 531 
L 1825 4091 
L 703 3866 
L 703 4441 
L 1819 4666 
L 2450 4666 
L 2450 531 
L 3481 531 
L 3481 0 
L 794 0 
L 794 531 
z
" transform="scale(0.015625)"/>
      <path id="DejaVuSans-32" d="M 1228 531 
L 3431 531 
L 3431 0 
L 469 0 
L 469 531 
Q 828 903 1448 1529 
Q 2069 2156 2228 2338 
Q 2531 2678 2651 2914 
Q 2772 3150 2772 3378 
Q 2772 3750 2511 3984 
Q 2250 4219 1831 4219 
Q 1534 4219 1204 4116 
Q 875 4013 500 3803 
L 500 4441 
Q 881 4594 1212 4672 
Q 1544 4750 1819 4750 
Q 2544 4750 2975 4387 
Q 3406 4025 3406 3419 
Q 3406 3131 3298 2873 
Q 3191 2616 2906 2266 
Q 2828 2175 2409 1742 
Q 1991 1309 1228 531 
z
" transform="scale(0.015625)"/>
      <path id="DejaVuSans-35" d="M 691 4666 
L 3169 4666 
L 3169 4134 
L 1269 4134 
L 1269 2991 
Q 1406 3038 1543 3061 
Q 1681 3084 1819 3084 
Q 2600 3084 3056 2656 
Q 3513 2228 3513 1497 
Q 3513 744 3044 326 
Q 2575 -91 1722 -91 
Q 1428 -91 1123 -41 
Q 819 9 494 109 
L 494 744 
Q 775 591 1075 516 
Q 1375 441 1709 441 
Q 2250 441 2565 725 
Q 2881 1009 2881 1497 
Q 2881 1984 2565 2268 
Q 2250 2553 1709 2553 
Q 1456 2553 1204 2497 
Q 953 2441 691 2322 
L 691 4666 
z
" transform="scale(0.015625)"/>
      <path id="DejaVuSans-39" d="M 703 97 
L 703 672 
Q 941 559 1184 500 
Q 1428 441 1663 441 
Q 2288 441 2617 861 
Q 2947 1281 2994 2138 
Q 2813 1869 2534 1725 
Q 2256 1581 1919 1581 
Q 1219 1581 811 2004 
Q 403 2428 403 3163 
Q 403 3881 828 4315 
Q 1253 4750 1959 4750 
Q 2769 4750 3195 4129 
Q 3622 3509 3622 2328 
Q 3622 1225 3098 567 
Q 2575 -91 1691 -91 
Q 1453 -91 1209 -44 
Q 966 3 703 97 
z
M 1959 2075 
Q 2384 2075 2632 2365 
Q 2881 2656 2881 3163 
Q 2881 3666 2632 3958 
Q 2384 4250 1959 4250 
Q 1534 4250 1286 3958 
Q 1038 3666 1038 3163 
Q 1038 2656 1286 2365 
Q 1534 2075 1959 2075 
z
" transform="scale(0.015625)"/>
      <path id="DejaVuSans-20" transform="scale(0.015625)"/>
      <path id="DejaVuSans-69" d="M 603 3500 
L 1178 3500 
L 1178 0 
L 603 0 
L 603 3500 
z
M 603 4863 
L 1178 4863 
L 1178 4134 
L 603 4134 
L 603 4863 
z
" transform="scale(0.015625)"/>
      <path id="DejaVuSans-6d" d="M 3328 2828 
Q 3544 3216 3844 3400 
Q 4144 3584 4550 3584 
Q 5097 3584 5394 3201 
Q 5691 2819 5691 2113 
L 5691 0 
L 5113 0 
L 5113 2094 
Q 5113 2597 4934 2840 
Q 4756 3084 4391 3084 
Q 3944 3084 3684 2787 
Q 3425 2491 3425 1978 
L 3425 0 
L 2847 0 
L 2847 2094 
Q 2847 2600 2669 2842 
Q 2491 3084 2119 3084 
Q 1678 3084 1418 2786 
Q 1159 2488 1159 1978 
L 1159 0 
L 581 0 
L 581 3500 
L 1159 3500 
L 1159 2956 
Q 1356 3278 1631 3431 
Q 1906 3584 2284 3584 
Q 2666 3584 2933 3390 
Q 3200 3197 3328 2828 
z
" transform="scale(0.015625)"/>
      <path id="DejaVuSans-61" d="M 2194 1759 
Q 1497 1759 1228 1600 
Q 959 1441 959 1056 
Q 959 750 1161 570 
Q 1363 391 1709 391 
Q 2188 391 2477 730 
Q 2766 1069 2766 1631 
L 2766 1759 
L 2194 1759 
z
M 3341 1997 
L 3341 0 
L 2766 0 
L 2766 531 
Q 2569 213 2275 61 
Q 1981 -91 1556 -91 
Q 1019 -91 701 211 
Q 384 513 384 1019 
Q 384 1609 779 1909 
Q 1175 2209 1959 2209 
L 2766 2209 
L 2766 2266 
Q 2766 2663 2505 2880 
Q 2244 3097 1772 3097 
Q 1472 3097 1187 3025 
Q 903 2953 641 2809 
L 641 3341 
Q 956 3463 1253 3523 
Q 1550 3584 1831 3584 
Q 2591 3584 2966 3190 
Q 3341 2797 3341 1997 
z
" transform="scale(0.015625)"/>
      <path id="DejaVuSans-67" d="M 2906 1791 
Q 2906 2416 2648 2759 
Q 2391 3103 1925 3103 
Q 1463 3103 1205 2759 
Q 947 2416 947 1791 
Q 947 1169 1205 825 
Q 1463 481 1925 481 
Q 2391 481 2648 825 
Q 2906 1169 2906 1791 
z
M 3481 434 
Q 3481 -459 3084 -895 
Q 2688 -1331 1869 -1331 
Q 1566 -1331 1297 -1286 
Q 1028 -1241 775 -1147 
L 775 -588 
Q 1028 -725 1275 -790 
Q 1522 -856 1778 -856 
Q 2344 -856 2625 -561 
Q 2906 -266 2906 331 
L 2906 616 
Q 2728 306 2450 153 
Q 2172 0 1784 0 
Q 1141 0 747 490 
Q 353 981 353 1791 
Q 353 2603 747 3093 
Q 1141 3584 1784 3584 
Q 2172 3584 2450 3431 
Q 2728 3278 2906 2969 
L 2906 3500 
L 3481 3500 
L 3481 434 
z
" transform="scale(0.015625)"/>
      <path id="DejaVuSans-65" d="M 3597 1894 
L 3597 1613 
L 953 1613 
Q 991 1019 1311 708 
Q 1631 397 2203 397 
Q 2534 397 2845 478 
Q 3156 559 3463 722 
L 3463 178 
Q 3153 47 2828 -22 
Q 2503 -91 2169 -91 
Q 1331 -91 842 396 
Q 353 884 353 1716 
Q 353 2575 817 3079 
Q 1281 3584 2069 3584 
Q 2775 3584 3186 3129 
Q 3597 2675 3597 1894 
z
M 3022 2063 
Q 3016 2534 2758 2815 
Q 2500 3097 2075 3097 
Q 1594 3097 1305 2825 
Q 1016 2553 972 2059 
L 3022 2063 
z
" transform="scale(0.015625)"/>
      <path id="DejaVuSans-73" d="M 2834 3397 
L 2834 2853 
Q 2591 2978 2328 3040 
Q 2066 3103 1784 3103 
Q 1356 3103 1142 2972 
Q 928 2841 928 2578 
Q 928 2378 1081 2264 
Q 1234 2150 1697 2047 
L 1894 2003 
Q 2506 1872 2764 1633 
Q 3022 1394 3022 966 
Q 3022 478 2636 193 
Q 2250 -91 1575 -91 
Q 1294 -91 989 -36 
Q 684 19 347 128 
L 347 722 
Q 666 556 975 473 
Q 1284 391 1588 391 
Q 1994 391 2212 530 
Q 2431 669 2431 922 
Q 2431 1156 2273 1281 
Q 2116 1406 1581 1522 
L 1381 1569 
Q 847 1681 609 1914 
Q 372 2147 372 2553 
Q 372 3047 722 3315 
Q 1072 3584 1716 3584 
Q 2034 3584 2315 3537 
Q 2597 3491 2834 3397 
z
" transform="scale(0.015625)"/>
     </defs>
     <use xlink:href="#DejaVuSans-31"/>
     <use xlink:href="#DejaVuSans-32" transform="translate(63.623047 0)"/>
     <use xlink:href="#DejaVuSans-32" transform="translate(127.246094 0)"/>
     <use xlink:href="#DejaVuSans-35" transform="translate(190.869141 0)"/>
     <use xlink:href="#DejaVuSans-39" transform="translate(254.492188 0)"/>
     <use xlink:href="#DejaVuSans-20" transform="translate(318.115234 0)"/>
     <use xlink:href="#DejaVuSans-69" transform="translate(349.902344 0)"/>
     <use xlink:href="#DejaVuSans-6d" transform="translate(377.685547 0)"/>
     <use xlink:href="#DejaVuSans-61" transform="translate(475.097656 0)"/>
     <use xlink:href="#DejaVuSans-67" transform="translate(536.376953 0)"/>
     <use xlink:href="#DejaVuSans-65" transform="translate(599.853516 0)"/>
     <use xlink:href="#DejaVuSans-73" transform="translate(661.376953 0)"/>
    </g>
    <!-- 70/15/15 -->
    <g style="fill: #46515f" transform="translate(35.39548 181.413291) scale(0.082 -0.082)">
     <defs>
      <path id="DejaVuSans-37" d="M 525 4666 
L 3525 4666 
L 3525 4397 
L 1831 0 
L 1172 0 
L 2766 4134 
L 525 4134 
L 525 4666 
z
" transform="scale(0.015625)"/>
      <path id="DejaVuSans-30" d="M 2034 4250 
Q 1547 4250 1301 3770 
Q 1056 3291 1056 2328 
Q 1056 1369 1301 889 
Q 1547 409 2034 409 
Q 2525 409 2770 889 
Q 3016 1369 3016 2328 
Q 3016 3291 2770 3770 
Q 2525 4250 2034 4250 
z
M 2034 4750 
Q 2819 4750 3233 4129 
Q 3647 3509 3647 2328 
Q 3647 1150 3233 529 
Q 2819 -91 2034 -91 
Q 1250 -91 836 529 
Q 422 1150 422 2328 
Q 422 3509 836 4129 
Q 1250 4750 2034 4750 
z
" transform="scale(0.015625)"/>
      <path id="DejaVuSans-2f" d="M 1625 4666 
L 2156 4666 
L 531 -594 
L 0 -594 
L 1625 4666 
z
" transform="scale(0.015625)"/>
     </defs>
     <use xlink:href="#DejaVuSans-37"/>
     <use xlink:href="#DejaVuSans-30" transform="translate(63.623047 0)"/>
     <use xlink:href="#DejaVuSans-2f" transform="translate(127.246094 0)"/>
     <use xlink:href="#DejaVuSans-31" transform="translate(160.9375 0)"/>
     <use xlink:href="#DejaVuSans-35" transform="translate(224.560547 0)"/>
     <use xlink:href="#DejaVuSans-2f" transform="translate(288.183594 0)"/>
     <use xlink:href="#DejaVuSans-31" transform="translate(321.875 0)"/>
     <use xlink:href="#DejaVuSans-35" transform="translate(385.498047 0)"/>
    </g>
   </g>
   <g id="text_3">
    <!-- Preprocessing -->
    <g transform="translate(113.479343 138.374605) scale(0.095 -0.095)">
     <defs>
      <path id="DejaVuSans-Bold-50" d="M 588 4666 
L 2584 4666 
Q 3475 4666 3951 4270 
Q 4428 3875 4428 3144 
Q 4428 2409 3951 2014 
Q 3475 1619 2584 1619 
L 1791 1619 
L 1791 0 
L 588 0 
L 588 4666 
z
M 1791 3794 
L 1791 2491 
L 2456 2491 
Q 2806 2491 2997 2661 
Q 3188 2831 3188 3144 
Q 3188 3456 2997 3625 
Q 2806 3794 2456 3794 
L 1791 3794 
z
" transform="scale(0.015625)"/>
      <path id="DejaVuSans-Bold-72" d="M 3138 2547 
Q 2991 2616 2845 2648 
Q 2700 2681 2553 2681 
Q 2122 2681 1889 2404 
Q 1656 2128 1656 1613 
L 1656 0 
L 538 0 
L 538 3500 
L 1656 3500 
L 1656 2925 
Q 1872 3269 2151 3426 
Q 2431 3584 2822 3584 
Q 2878 3584 2943 3579 
Q 3009 3575 3134 3559 
L 3138 2547 
z
" transform="scale(0.015625)"/>
      <path id="DejaVuSans-Bold-6f" d="M 2203 2784 
Q 1831 2784 1636 2517 
Q 1441 2250 1441 1747 
Q 1441 1244 1636 976 
Q 1831 709 2203 709 
Q 2569 709 2762 976 
Q 2956 1244 2956 1747 
Q 2956 2250 2762 2517 
Q 2569 2784 2203 2784 
z
M 2203 3584 
Q 3106 3584 3614 3096 
Q 4122 2609 4122 1747 
Q 4122 884 3614 396 
Q 3106 -91 2203 -91 
Q 1297 -91 786 396 
Q 275 884 275 1747 
Q 275 2609 786 3096 
Q 1297 3584 2203 3584 
z
" transform="scale(0.015625)"/>
      <path id="DejaVuSans-Bold-63" d="M 3366 3391 
L 3366 2478 
Q 3138 2634 2908 2709 
Q 2678 2784 2431 2784 
Q 1963 2784 1702 2511 
Q 1441 2238 1441 1747 
Q 1441 1256 1702 982 
Q 1963 709 2431 709 
Q 2694 709 2930 787 
Q 3166 866 3366 1019 
L 3366 103 
Q 3103 6 2833 -42 
Q 2563 -91 2291 -91 
Q 1344 -91 809 395 
Q 275 881 275 1747 
Q 275 2613 809 3098 
Q 1344 3584 2291 3584 
Q 2566 3584 2833 3536 
Q 3100 3488 3366 3391 
z
" transform="scale(0.015625)"/>
      <path id="DejaVuSans-Bold-73" d="M 3272 3391 
L 3272 2541 
Q 2913 2691 2578 2766 
Q 2244 2841 1947 2841 
Q 1628 2841 1473 2761 
Q 1319 2681 1319 2516 
Q 1319 2381 1436 2309 
Q 1553 2238 1856 2203 
L 2053 2175 
Q 2913 2066 3209 1816 
Q 3506 1566 3506 1031 
Q 3506 472 3093 190 
Q 2681 -91 1863 -91 
Q 1516 -91 1145 -36 
Q 775 19 384 128 
L 384 978 
Q 719 816 1070 734 
Q 1422 653 1784 653 
Q 2113 653 2278 743 
Q 2444 834 2444 1013 
Q 2444 1163 2330 1236 
Q 2216 1309 1875 1350 
L 1678 1375 
Q 931 1469 631 1722 
Q 331 1975 331 2491 
Q 331 3047 712 3315 
Q 1094 3584 1881 3584 
Q 2191 3584 2531 3537 
Q 2872 3491 3272 3391 
z
" transform="scale(0.015625)"/>
      <path id="DejaVuSans-Bold-6e" d="M 4056 2131 
L 4056 0 
L 2931 0 
L 2931 347 
L 2931 1631 
Q 2931 2084 2911 2256 
Q 2891 2428 2841 2509 
Q 2775 2619 2662 2680 
Q 2550 2741 2406 2741 
Q 2056 2741 1856 2470 
Q 1656 2200 1656 1722 
L 1656 0 
L 538 0 
L 538 3500 
L 1656 3500 
L 1656 2988 
Q 1909 3294 2193 3439 
Q 2478 3584 2822 3584 
Q 3428 3584 3742 3212 
Q 4056 2841 4056 2131 
z
" transform="scale(0.015625)"/>
      <path id="DejaVuSans-Bold-67" d="M 2919 594 
Q 2688 288 2409 144 
Q 2131 0 1766 0 
Q 1125 0 706 504 
Q 288 1009 288 1791 
Q 288 2575 706 3076 
Q 1125 3578 1766 3578 
Q 2131 3578 2409 3434 
Q 2688 3291 2919 2981 
L 2919 3500 
L 4044 3500 
L 4044 353 
Q 4044 -491 3511 -936 
Q 2978 -1381 1966 -1381 
Q 1638 -1381 1331 -1331 
Q 1025 -1281 716 -1178 
L 716 -306 
Q 1009 -475 1290 -558 
Q 1572 -641 1856 -641 
Q 2406 -641 2662 -400 
Q 2919 -159 2919 353 
L 2919 594 
z
M 2181 2772 
Q 1834 2772 1640 2515 
Q 1447 2259 1447 1791 
Q 1447 1309 1634 1061 
Q 1822 813 2181 813 
Q 2531 813 2725 1069 
Q 2919 1325 2919 1791 
Q 2919 2259 2725 2515 
Q 2531 2772 2181 2772 
z
" transform="scale(0.015625)"/>
     </defs>
     <use xlink:href="#DejaVuSans-Bold-50"/>
     <use xlink:href="#DejaVuSans-Bold-72" transform="translate(73.291016 0)"/>
     <use xlink:href="#DejaVuSans-Bold-65" transform="translate(122.607422 0)"/>
     <use xlink:href="#DejaVuSans-Bold-70" transform="translate(190.429688 0)"/>
     <use xlink:href="#DejaVuSans-Bold-72" transform="translate(262.011719 0)"/>
     <use xlink:href="#DejaVuSans-Bold-6f" transform="translate(311.328125 0)"/>
     <use xlink:href="#DejaVuSans-Bold-63" transform="translate(380.029297 0)"/>
     <use xlink:href="#DejaVuSans-Bold-65" transform="translate(439.306641 0)"/>
     <use xlink:href="#DejaVuSans-Bold-73" transform="translate(507.128906 0)"/>
     <use xlink:href="#DejaVuSans-Bold-73" transform="translate(566.650391 0)"/>
     <use xlink:href="#DejaVuSans-Bold-69" transform="translate(626.171875 0)"/>
     <use xlink:href="#DejaVuSans-Bold-6e" transform="translate(660.449219 0)"/>
     <use xlink:href="#DejaVuSans-Bold-67" transform="translate(731.640625 0)"/>
    </g>
   </g>
   <g id="text_4">
    <!-- standardized -->
    <g style="fill: #46515f" transform="translate(125.02964 172.231084) scale(0.082 -0.082)">
     <defs>
      <path id="DejaVuSans-74" d="M 1172 4494 
L 1172 3500 
L 2356 3500 
L 2356 3053 
L 1172 3053 
L 1172 1153 
Q 1172 725 1289 603 
Q 1406 481 1766 481 
L 2356 481 
L 2356 0 
L 1766 0 
Q 1100 0 847 248 
Q 594 497 594 1153 
L 594 3053 
L 172 3053 
L 172 3500 
L 594 3500 
L 594 4494 
L 1172 4494 
z
" transform="scale(0.015625)"/>
      <path id="DejaVuSans-6e" d="M 3513 2113 
L 3513 0 
L 2938 0 
L 2938 2094 
Q 2938 2591 2744 2837 
Q 2550 3084 2163 3084 
Q 1697 3084 1428 2787 
Q 1159 2491 1159 1978 
L 1159 0 
L 581 0 
L 581 3500 
L 1159 3500 
L 1159 2956 
Q 1366 3272 1645 3428 
Q 1925 3584 2291 3584 
Q 2894 3584 3203 3211 
Q 3513 2838 3513 2113 
z
" transform="scale(0.015625)"/>
      <path id="DejaVuSans-64" d="M 2906 2969 
L 2906 4863 
L 3481 4863 
L 3481 0 
L 2906 0 
L 2906 525 
Q 2725 213 2448 61 
Q 2172 -91 1784 -91 
Q 1150 -91 751 415 
Q 353 922 353 1747 
Q 353 2572 751 3078 
Q 1150 3584 1784 3584 
Q 2172 3584 2448 3432 
Q 2725 3281 2906 2969 
z
M 947 1747 
Q 947 1113 1208 752 
Q 1469 391 1925 391 
Q 2381 391 2643 752 
Q 2906 1113 2906 1747 
Q 2906 2381 2643 2742 
Q 2381 3103 1925 3103 
Q 1469 3103 1208 2742 
Q 947 2381 947 1747 
z
" transform="scale(0.015625)"/>
      <path id="DejaVuSans-72" d="M 2631 2963 
Q 2534 3019 2420 3045 
Q 2306 3072 2169 3072 
Q 1681 3072 1420 2755 
Q 1159 2438 1159 1844 
L 1159 0 
L 581 0 
L 581 3500 
L 1159 3500 
L 1159 2956 
Q 1341 3275 1631 3429 
Q 1922 3584 2338 3584 
Q 2397 3584 2469 3576 
Q 2541 3569 2628 3553 
L 2631 2963 
z
" transform="scale(0.015625)"/>
      <path id="DejaVuSans-7a" d="M 353 3500 
L 3084 3500 
L 3084 2975 
L 922 459 
L 3084 459 
L 3084 0 
L 275 0 
L 275 525 
L 2438 3041 
L 353 3041 
L 353 3500 
z
" transform="scale(0.015625)"/>
     </defs>
     <use xlink:href="#DejaVuSans-73"/>
     <use xlink:href="#DejaVuSans-74" transform="translate(52.099609 0)"/>
     <use xlink:href="#DejaVuSans-61" transform="translate(91.308594 0)"/>
     <use xlink:href="#DejaVuSans-6e" transform="translate(152.587891 0)"/>
     <use xlink:href="#DejaVuSans-64" transform="translate(215.966797 0)"/>
     <use xlink:href="#DejaVuSans-61" transform="translate(279.443359 0)"/>
     <use xlink:href="#DejaVuSans-72" transform="translate(340.722656 0)"/>
     <use xlink:href="#DejaVuSans-64" transform="translate(380.085938 0)"/>
     <use xlink:href="#DejaVuSans-69" transform="translate(443.5625 0)"/>
     <use xlink:href="#DejaVuSans-7a" transform="translate(471.345703 0)"/>
     <use xlink:href="#DejaVuSans-65" transform="translate(523.835938 0)"/>
     <use xlink:href="#DejaVuSans-64" transform="translate(585.359375 0)"/>
    </g>
    <!-- 256 x 256 -->
    <g style="fill: #46515f" transform="translate(130.947733 181.413291) scale(0.082 -0.082)">
     <defs>
      <path id="DejaVuSans-36" d="M 2113 2584 
Q 1688 2584 1439 2293 
Q 1191 2003 1191 1497 
Q 1191 994 1439 701 
Q 1688 409 2113 409 
Q 2538 409 2786 701 
Q 3034 994 3034 1497 
Q 3034 2003 2786 2293 
Q 2538 2584 2113 2584 
z
M 3366 4563 
L 3366 3988 
Q 3128 4100 2886 4159 
Q 2644 4219 2406 4219 
Q 1781 4219 1451 3797 
Q 1122 3375 1075 2522 
Q 1259 2794 1537 2939 
Q 1816 3084 2150 3084 
Q 2853 3084 3261 2657 
Q 3669 2231 3669 1497 
Q 3669 778 3244 343 
Q 2819 -91 2113 -91 
Q 1303 -91 875 529 
Q 447 1150 447 2328 
Q 447 3434 972 4092 
Q 1497 4750 2381 4750 
Q 2619 4750 2861 4703 
Q 3103 4656 3366 4563 
z
" transform="scale(0.015625)"/>
      <path id="DejaVuSans-78" d="M 3513 3500 
L 2247 1797 
L 3578 0 
L 2900 0 
L 1881 1375 
L 863 0 
L 184 0 
L 1544 1831 
L 300 3500 
L 978 3500 
L 1906 2253 
L 2834 3500 
L 3513 3500 
z
" transform="scale(0.015625)"/>
     </defs>
     <use xlink:href="#DejaVuSans-32"/>
     <use xlink:href="#DejaVuSans-35" transform="translate(63.623047 0)"/>
     <use xlink:href="#DejaVuSans-36" transform="translate(127.246094 0)"/>
     <use xlink:href="#DejaVuSans-20" transform="translate(190.869141 0)"/>
     <use xlink:href="#DejaVuSans-78" transform="translate(222.65625 0)"/>
     <use xlink:href="#DejaVuSans-20" transform="translate(281.835938 0)"/>
     <use xlink:href="#DejaVuSans-32" transform="translate(313.623047 0)"/>
     <use xlink:href="#DejaVuSans-35" transform="translate(377.246094 0)"/>
     <use xlink:href="#DejaVuSans-36" transform="translate(440.869141 0)"/>
    </g>
   </g>
   <g id="text_5">
    <!-- Feature -->
    <g transform="translate(228.756737 133.092753) scale(0.095 -0.095)">
     <defs>
      <path id="DejaVuSans-Bold-75" d="M 500 1363 
L 500 3500 
L 1625 3500 
L 1625 3150 
Q 1625 2866 1622 2436 
Q 1619 2006 1619 1863 
Q 1619 1441 1641 1255 
Q 1663 1069 1716 984 
Q 1784 875 1895 815 
Q 2006 756 2150 756 
Q 2500 756 2700 1025 
Q 2900 1294 2900 1772 
L 2900 3500 
L 4019 3500 
L 4019 0 
L 2900 0 
L 2900 506 
Q 2647 200 2364 54 
Q 2081 -91 1741 -91 
Q 1134 -91 817 281 
Q 500 653 500 1363 
z
" transform="scale(0.015625)"/>
     </defs>
     <use xlink:href="#DejaVuSans-Bold-46"/>
     <use xlink:href="#DejaVuSans-Bold-65" transform="translate(64.310547 0)"/>
     <use xlink:href="#DejaVuSans-Bold-61" transform="translate(132.132812 0)"/>
     <use xlink:href="#DejaVuSans-Bold-74" transform="translate(199.613281 0)"/>
     <use xlink:href="#DejaVuSans-Bold-75" transform="translate(247.416016 0)"/>
     <use xlink:href="#DejaVuSans-Bold-72" transform="translate(318.607422 0)"/>
     <use xlink:href="#DejaVuSans-Bold-65" transform="translate(367.923828 0)"/>
    </g>
    <!-- Extraction -->
    <g transform="translate(221.96869 143.730675) scale(0.095 -0.095)">
     <defs>
      <path id="DejaVuSans-Bold-45" d="M 588 4666 
L 3834 4666 
L 3834 3756 
L 1791 3756 
L 1791 2888 
L 3713 2888 
L 3713 1978 
L 1791 1978 
L 1791 909 
L 3903 909 
L 3903 0 
L 588 0 
L 588 4666 
z
" transform="scale(0.015625)"/>
     </defs>
     <use xlink:href="#DejaVuSans-Bold-45"/>
     <use xlink:href="#DejaVuSans-Bold-78" transform="translate(68.310547 0)"/>
     <use xlink:href="#DejaVuSans-Bold-74" transform="translate(132.8125 0)"/>
     <use xlink:href="#DejaVuSans-Bold-72" transform="translate(180.615234 0)"/>
     <use xlink:href="#DejaVuSans-Bold-61" transform="translate(229.931641 0)"/>
     <use xlink:href="#DejaVuSans-Bold-63" transform="translate(297.412109 0)"/>
     <use xlink:href="#DejaVuSans-Bold-74" transform="translate(356.689453 0)"/>
     <use xlink:href="#DejaVuSans-Bold-69" transform="translate(404.492188 0)"/>
     <use xlink:href="#DejaVuSans-Bold-6f" transform="translate(438.769531 0)"/>
     <use xlink:href="#DejaVuSans-Bold-6e" transform="translate(507.470703 0)"/>
    </g>
   </g>
   <g id="text_6">
    <!-- F0-F6 -->
    <g style="fill: #46515f" transform="translate(238.042127 172.231084) scale(0.082 -0.082)">
     <defs>
      <path id="DejaVuSans-46" d="M 628 4666 
L 3309 4666 
L 3309 4134 
L 1259 4134 
L 1259 2759 
L 3109 2759 
L 3109 2228 
L 1259 2228 
L 1259 0 
L 628 0 
L 628 4666 
z
" transform="scale(0.015625)"/>
      <path id="DejaVuSans-2d" d="M 313 2009 
L 1997 2009 
L 1997 1497 
L 313 1497 
L 313 2009 
z
" transform="scale(0.015625)"/>
     </defs>
     <use xlink:href="#DejaVuSans-46"/>
     <use xlink:href="#DejaVuSans-30" transform="translate(57.519531 0)"/>
     <use xlink:href="#DejaVuSans-2d" transform="translate(121.142578 0)"/>
     <use xlink:href="#DejaVuSans-46" transform="translate(157.226562 0)"/>
     <use xlink:href="#DejaVuSans-36" transform="translate(214.746094 0)"/>
    </g>
    <!-- handcrafted -->
    <g style="fill: #46515f" transform="translate(224.585799 181.413291) scale(0.082 -0.082)">
     <defs>
      <path id="DejaVuSans-68" d="M 3513 2113 
L 3513 0 
L 2938 0 
L 2938 2094 
Q 2938 2591 2744 2837 
Q 2550 3084 2163 3084 
Q 1697 3084 1428 2787 
Q 1159 2491 1159 1978 
L 1159 0 
L 581 0 
L 581 4863 
L 1159 4863 
L 1159 2956 
Q 1366 3272 1645 3428 
Q 1925 3584 2291 3584 
Q 2894 3584 3203 3211 
Q 3513 2838 3513 2113 
z
" transform="scale(0.015625)"/>
      <path id="DejaVuSans-63" d="M 3122 3366 
L 3122 2828 
Q 2878 2963 2633 3030 
Q 2388 3097 2138 3097 
Q 1578 3097 1268 2742 
Q 959 2388 959 1747 
Q 959 1106 1268 751 
Q 1578 397 2138 397 
Q 2388 397 2633 464 
Q 2878 531 3122 666 
L 3122 134 
Q 2881 22 2623 -34 
Q 2366 -91 2075 -91 
Q 1284 -91 818 406 
Q 353 903 353 1747 
Q 353 2603 823 3093 
Q 1294 3584 2113 3584 
Q 2378 3584 2631 3529 
Q 2884 3475 3122 3366 
z
" transform="scale(0.015625)"/>
      <path id="DejaVuSans-66" d="M 2375 4863 
L 2375 4384 
L 1825 4384 
Q 1516 4384 1395 4259 
Q 1275 4134 1275 3809 
L 1275 3500 
L 2222 3500 
L 2222 3053 
L 1275 3053 
L 1275 0 
L 697 0 
L 697 3053 
L 147 3053 
L 147 3500 
L 697 3500 
L 697 3744 
Q 697 4328 969 4595 
Q 1241 4863 1831 4863 
L 2375 4863 
z
" transform="scale(0.015625)"/>
     </defs>
     <use xlink:href="#DejaVuSans-68"/>
     <use xlink:href="#DejaVuSans-61" transform="translate(63.378906 0)"/>
     <use xlink:href="#DejaVuSans-6e" transform="translate(124.658203 0)"/>
     <use xlink:href="#DejaVuSans-64" transform="translate(188.037109 0)"/>
     <use xlink:href="#DejaVuSans-63" transform="translate(251.513672 0)"/>
     <use xlink:href="#DejaVuSans-72" transform="translate(306.494141 0)"/>
     <use xlink:href="#DejaVuSans-61" transform="translate(347.607422 0)"/>
     <use xlink:href="#DejaVuSans-66" transform="translate(408.886719 0)"/>
     <use xlink:href="#DejaVuSans-74" transform="translate(442.341797 0)"/>
     <use xlink:href="#DejaVuSans-65" transform="translate(481.550781 0)"/>
     <use xlink:href="#DejaVuSans-64" transform="translate(543.074219 0)"/>
    </g>
   </g>
   <g id="text_7">
    <!-- Single-Feature -->
    <g transform="translate(307.927451 133.055644) scale(0.095 -0.095)">
     <defs>
      <path id="DejaVuSans-Bold-2d" d="M 347 2297 
L 2309 2297 
L 2309 1388 
L 347 1388 
L 347 2297 
z
" transform="scale(0.015625)"/>
     </defs>
     <use xlink:href="#DejaVuSans-Bold-53"/>
     <use xlink:href="#DejaVuSans-Bold-69" transform="translate(72.021484 0)"/>
     <use xlink:href="#DejaVuSans-Bold-6e" transform="translate(106.298828 0)"/>
     <use xlink:href="#DejaVuSans-Bold-67" transform="translate(177.490234 0)"/>
     <use xlink:href="#DejaVuSans-Bold-6c" transform="translate(249.072266 0)"/>
     <use xlink:href="#DejaVuSans-Bold-65" transform="translate(283.349609 0)"/>
     <use xlink:href="#DejaVuSans-Bold-2d" transform="translate(351.171875 0)"/>
     <use xlink:href="#DejaVuSans-Bold-46" transform="translate(392.675781 0)"/>
     <use xlink:href="#DejaVuSans-Bold-65" transform="translate(456.986328 0)"/>
     <use xlink:href="#DejaVuSans-Bold-61" transform="translate(524.808594 0)"/>
     <use xlink:href="#DejaVuSans-Bold-74" transform="translate(592.289062 0)"/>
     <use xlink:href="#DejaVuSans-Bold-75" transform="translate(640.091797 0)"/>
     <use xlink:href="#DejaVuSans-Bold-72" transform="translate(711.283203 0)"/>
     <use xlink:href="#DejaVuSans-Bold-65" transform="translate(760.599609 0)"/>
    </g>
    <!-- Baselines -->
    <g transform="translate(321.71581 143.767785) scale(0.095 -0.095)">
     <defs>
      <path id="DejaVuSans-Bold-42" d="M 2456 2859 
Q 2741 2859 2887 2984 
Q 3034 3109 3034 3353 
Q 3034 3594 2887 3720 
Q 2741 3847 2456 3847 
L 1791 3847 
L 1791 2859 
L 2456 2859 
z
M 2497 819 
Q 2859 819 3042 972 
Q 3225 1125 3225 1434 
Q 3225 1738 3044 1889 
Q 2863 2041 2497 2041 
L 1791 2041 
L 1791 819 
L 2497 819 
z
M 3616 2497 
Q 4003 2384 4215 2081 
Q 4428 1778 4428 1338 
Q 4428 663 3972 331 
Q 3516 0 2584 0 
L 588 0 
L 588 4666 
L 2394 4666 
Q 3366 4666 3802 4372 
Q 4238 4078 4238 3431 
Q 4238 3091 4078 2852 
Q 3919 2613 3616 2497 
z
" transform="scale(0.015625)"/>
     </defs>
     <use xlink:href="#DejaVuSans-Bold-42"/>
     <use xlink:href="#DejaVuSans-Bold-61" transform="translate(76.220703 0)"/>
     <use xlink:href="#DejaVuSans-Bold-73" transform="translate(143.701172 0)"/>
     <use xlink:href="#DejaVuSans-Bold-65" transform="translate(203.222656 0)"/>
     <use xlink:href="#DejaVuSans-Bold-6c" transform="translate(271.044922 0)"/>
     <use xlink:href="#DejaVuSans-Bold-69" transform="translate(305.322266 0)"/>
     <use xlink:href="#DejaVuSans-Bold-6e" transform="translate(339.599609 0)"/>
     <use xlink:href="#DejaVuSans-Bold-65" transform="translate(410.791016 0)"/>
     <use xlink:href="#DejaVuSans-Bold-73" transform="translate(478.613281 0)"/>
    </g>
   </g>
   <g id="text_8">
    <!-- 7 features x -->
    <g style="fill: #46515f" transform="translate(322.699912 172.231084) scale(0.082 -0.082)">
     <defs>
      <path id="DejaVuSans-75" d="M 544 1381 
L 544 3500 
L 1119 3500 
L 1119 1403 
Q 1119 906 1312 657 
Q 1506 409 1894 409 
Q 2359 409 2629 706 
Q 2900 1003 2900 1516 
L 2900 3500 
L 3475 3500 
L 3475 0 
L 2900 0 
L 2900 538 
Q 2691 219 2414 64 
Q 2138 -91 1772 -91 
Q 1169 -91 856 284 
Q 544 659 544 1381 
z
M 1991 3584 
L 1991 3584 
z
" transform="scale(0.015625)"/>
     </defs>
     <use xlink:href="#DejaVuSans-37"/>
     <use xlink:href="#DejaVuSans-20" transform="translate(63.623047 0)"/>
     <use xlink:href="#DejaVuSans-66" transform="translate(95.410156 0)"/>
     <use xlink:href="#DejaVuSans-65" transform="translate(130.615234 0)"/>
     <use xlink:href="#DejaVuSans-61" transform="translate(192.138672 0)"/>
     <use xlink:href="#DejaVuSans-74" transform="translate(253.417969 0)"/>
     <use xlink:href="#DejaVuSans-75" transform="translate(292.626953 0)"/>
     <use xlink:href="#DejaVuSans-72" transform="translate(356.005859 0)"/>
     <use xlink:href="#DejaVuSans-65" transform="translate(394.869141 0)"/>
     <use xlink:href="#DejaVuSans-73" transform="translate(456.392578 0)"/>
     <use xlink:href="#DejaVuSans-20" transform="translate(508.492188 0)"/>
     <use xlink:href="#DejaVuSans-78" transform="translate(540.279297 0)"/>
    </g>
    <!-- 4 models -->
    <g style="fill: #46515f" transform="translate(328.462974 181.413291) scale(0.082 -0.082)">
     <defs>
      <path id="DejaVuSans-34" d="M 2419 4116 
L 825 1625 
L 2419 1625 
L 2419 4116 
z
M 2253 4666 
L 3047 4666 
L 3047 1625 
L 3713 1625 
L 3713 1100 
L 3047 1100 
L 3047 0 
L 2419 0 
L 2419 1100 
L 313 1100 
L 313 1709 
L 2253 4666 
z
" transform="scale(0.015625)"/>
      <path id="DejaVuSans-6f" d="M 1959 3097 
Q 1497 3097 1228 2736 
Q 959 2375 959 1747 
Q 959 1119 1226 758 
Q 1494 397 1959 397 
Q 2419 397 2687 759 
Q 2956 1122 2956 1747 
Q 2956 2369 2687 2733 
Q 2419 3097 1959 3097 
z
M 1959 3584 
Q 2709 3584 3137 3096 
Q 3566 2609 3566 1747 
Q 3566 888 3137 398 
Q 2709 -91 1959 -91 
Q 1206 -91 779 398 
Q 353 888 353 1747 
Q 353 2609 779 3096 
Q 1206 3584 1959 3584 
z
" transform="scale(0.015625)"/>
      <path id="DejaVuSans-6c" d="M 603 4863 
L 1178 4863 
L 1178 0 
L 603 0 
L 603 4863 
z
" transform="scale(0.015625)"/>
     </defs>
     <use xlink:href="#DejaVuSans-34"/>
     <use xlink:href="#DejaVuSans-20" transform="translate(63.623047 0)"/>
     <use xlink:href="#DejaVuSans-6d" transform="translate(95.410156 0)"/>
     <use xlink:href="#DejaVuSans-6f" transform="translate(192.822266 0)"/>
     <use xlink:href="#DejaVuSans-64" transform="translate(254.003906 0)"/>
     <use xlink:href="#DejaVuSans-65" transform="translate(317.480469 0)"/>
     <use xlink:href="#DejaVuSans-6c" transform="translate(379.003906 0)"/>
     <use xlink:href="#DejaVuSans-73" transform="translate(406.787109 0)"/>
    </g>
   </g>
   <g id="text_9">
    <!-- Single-Feature -->
    <g transform="translate(405.750079 133.018535) scale(0.095 -0.095)">
     <use xlink:href="#DejaVuSans-Bold-53"/>
     <use xlink:href="#DejaVuSans-Bold-69" transform="translate(72.021484 0)"/>
     <use xlink:href="#DejaVuSans-Bold-6e" transform="translate(106.298828 0)"/>
     <use xlink:href="#DejaVuSans-Bold-67" transform="translate(177.490234 0)"/>
     <use xlink:href="#DejaVuSans-Bold-6c" transform="translate(249.072266 0)"/>
     <use xlink:href="#DejaVuSans-Bold-65" transform="translate(283.349609 0)"/>
     <use xlink:href="#DejaVuSans-Bold-2d" transform="translate(351.171875 0)"/>
     <use xlink:href="#DejaVuSans-Bold-46" transform="translate(392.675781 0)"/>
     <use xlink:href="#DejaVuSans-Bold-65" transform="translate(456.986328 0)"/>
     <use xlink:href="#DejaVuSans-Bold-61" transform="translate(524.808594 0)"/>
     <use xlink:href="#DejaVuSans-Bold-74" transform="translate(592.289062 0)"/>
     <use xlink:href="#DejaVuSans-Bold-75" transform="translate(640.091797 0)"/>
     <use xlink:href="#DejaVuSans-Bold-72" transform="translate(711.283203 0)"/>
     <use xlink:href="#DejaVuSans-Bold-65" transform="translate(760.599609 0)"/>
    </g>
    <!-- Tuning -->
    <g transform="translate(427.209688 143.730675) scale(0.095 -0.095)">
     <defs>
      <path id="DejaVuSans-Bold-54" d="M 31 4666 
L 4331 4666 
L 4331 3756 
L 2784 3756 
L 2784 0 
L 1581 0 
L 1581 3756 
L 31 3756 
L 31 4666 
z
" transform="scale(0.015625)"/>
     </defs>
     <use xlink:href="#DejaVuSans-Bold-54"/>
     <use xlink:href="#DejaVuSans-Bold-75" transform="translate(57.212891 0)"/>
     <use xlink:href="#DejaVuSans-Bold-6e" transform="translate(128.404297 0)"/>
     <use xlink:href="#DejaVuSans-Bold-69" transform="translate(199.595703 0)"/>
     <use xlink:href="#DejaVuSans-Bold-6e" transform="translate(233.873047 0)"/>
     <use xlink:href="#DejaVuSans-Bold-67" transform="translate(305.064453 0)"/>
    </g>
   </g>
   <g id="text_10">
    <!-- selected -->
    <g style="fill: #46515f" transform="translate(427.792352 172.231084) scale(0.082 -0.082)">
     <use xlink:href="#DejaVuSans-73"/>
     <use xlink:href="#DejaVuSans-65" transform="translate(52.099609 0)"/>
     <use xlink:href="#DejaVuSans-6c" transform="translate(113.623047 0)"/>
     <use xlink:href="#DejaVuSans-65" transform="translate(141.40625 0)"/>
     <use xlink:href="#DejaVuSans-63" transform="translate(202.929688 0)"/>
     <use xlink:href="#DejaVuSans-74" transform="translate(257.910156 0)"/>
     <use xlink:href="#DejaVuSans-65" transform="translate(297.119141 0)"/>
     <use xlink:href="#DejaVuSans-64" transform="translate(358.642578 0)"/>
    </g>
    <!-- 14 candidates -->
    <g style="fill: #46515f" transform="translate(416.091337 181.413291) scale(0.082 -0.082)">
     <use xlink:href="#DejaVuSans-31"/>
     <use xlink:href="#DejaVuSans-34" transform="translate(63.623047 0)"/>
     <use xlink:href="#DejaVuSans-20" transform="translate(127.246094 0)"/>
     <use xlink:href="#DejaVuSans-63" transform="translate(159.033203 0)"/>
     <use xlink:href="#DejaVuSans-61" transform="translate(214.013672 0)"/>
     <use xlink:href="#DejaVuSans-6e" transform="translate(275.292969 0)"/>
     <use xlink:href="#DejaVuSans-64" transform="translate(338.671875 0)"/>
     <use xlink:href="#DejaVuSans-69" transform="translate(402.148438 0)"/>
     <use xlink:href="#DejaVuSans-64" transform="translate(429.931641 0)"/>
     <use xlink:href="#DejaVuSans-61" transform="translate(493.408203 0)"/>
     <use xlink:href="#DejaVuSans-74" transform="translate(554.6875 0)"/>
     <use xlink:href="#DejaVuSans-65" transform="translate(593.896484 0)"/>
     <use xlink:href="#DejaVuSans-73" transform="translate(655.419922 0)"/>
    </g>
   </g>
   <g id="text_11">
    <!-- Feature Fusion -->
    <g transform="translate(503.082121 133.055644) scale(0.095 -0.095)">
     <use xlink:href="#DejaVuSans-Bold-46"/>
     <use xlink:href="#DejaVuSans-Bold-65" transform="translate(64.310547 0)"/>
     <use xlink:href="#DejaVuSans-Bold-61" transform="translate(132.132812 0)"/>
     <use xlink:href="#DejaVuSans-Bold-74" transform="translate(199.613281 0)"/>
     <use xlink:href="#DejaVuSans-Bold-75" transform="translate(247.416016 0)"/>
     <use xlink:href="#DejaVuSans-Bold-72" transform="translate(318.607422 0)"/>
     <use xlink:href="#DejaVuSans-Bold-65" transform="translate(367.923828 0)"/>
     <use xlink:href="#DejaVuSans-Bold-20" transform="translate(435.746094 0)"/>
     <use xlink:href="#DejaVuSans-Bold-46" transform="translate(470.560547 0)"/>
     <use xlink:href="#DejaVuSans-Bold-75" transform="translate(533.871094 0)"/>
     <use xlink:href="#DejaVuSans-Bold-73" transform="translate(605.0625 0)"/>
     <use xlink:href="#DejaVuSans-Bold-69" transform="translate(664.583984 0)"/>
     <use xlink:href="#DejaVuSans-Bold-6f" transform="translate(698.861328 0)"/>
     <use xlink:href="#DejaVuSans-Bold-6e" transform="translate(767.5625 0)"/>
    </g>
    <!-- Screening -->
    <g transform="translate(516.108996 143.693566) scale(0.095 -0.095)">
     <use xlink:href="#DejaVuSans-Bold-53"/>
     <use xlink:href="#DejaVuSans-Bold-63" transform="translate(72.021484 0)"/>
     <use xlink:href="#DejaVuSans-Bold-72" transform="translate(131.298828 0)"/>
     <use xlink:href="#DejaVuSans-Bold-65" transform="translate(180.615234 0)"/>
     <use xlink:href="#DejaVuSans-Bold-65" transform="translate(248.4375 0)"/>
     <use xlink:href="#DejaVuSans-Bold-6e" transform="translate(316.259766 0)"/>
     <use xlink:href="#DejaVuSans-Bold-69" transform="translate(387.451172 0)"/>
     <use xlink:href="#DejaVuSans-Bold-6e" transform="translate(421.728516 0)"/>
     <use xlink:href="#DejaVuSans-Bold-67" transform="translate(492.919922 0)"/>
    </g>
   </g>
   <g id="text_12">
    <!-- 14 combos x -->
    <g style="fill: #46515f" transform="translate(516.668652 172.231084) scale(0.082 -0.082)">
     <defs>
      <path id="DejaVuSans-62" d="M 3116 1747 
Q 3116 2381 2855 2742 
Q 2594 3103 2138 3103 
Q 1681 3103 1420 2742 
Q 1159 2381 1159 1747 
Q 1159 1113 1420 752 
Q 1681 391 2138 391 
Q 2594 391 2855 752 
Q 3116 1113 3116 1747 
z
M 1159 2969 
Q 1341 3281 1617 3432 
Q 1894 3584 2278 3584 
Q 2916 3584 3314 3078 
Q 3713 2572 3713 1747 
Q 3713 922 3314 415 
Q 2916 -91 2278 -91 
Q 1894 -91 1617 61 
Q 1341 213 1159 525 
L 1159 0 
L 581 0 
L 581 4863 
L 1159 4863 
L 1159 2969 
z
" transform="scale(0.015625)"/>
     </defs>
     <use xlink:href="#DejaVuSans-31"/>
     <use xlink:href="#DejaVuSans-34" transform="translate(63.623047 0)"/>
     <use xlink:href="#DejaVuSans-20" transform="translate(127.246094 0)"/>
     <use xlink:href="#DejaVuSans-63" transform="translate(159.033203 0)"/>
     <use xlink:href="#DejaVuSans-6f" transform="translate(214.013672 0)"/>
     <use xlink:href="#DejaVuSans-6d" transform="translate(275.195312 0)"/>
     <use xlink:href="#DejaVuSans-62" transform="translate(372.607422 0)"/>
     <use xlink:href="#DejaVuSans-6f" transform="translate(436.083984 0)"/>
     <use xlink:href="#DejaVuSans-73" transform="translate(497.265625 0)"/>
     <use xlink:href="#DejaVuSans-20" transform="translate(549.365234 0)"/>
     <use xlink:href="#DejaVuSans-78" transform="translate(581.152344 0)"/>
    </g>
    <!-- 7 models -->
    <g style="fill: #46515f" transform="translate(524.10823 181.413291) scale(0.082 -0.082)">
     <use xlink:href="#DejaVuSans-37"/>
     <use xlink:href="#DejaVuSans-20" transform="translate(63.623047 0)"/>
     <use xlink:href="#DejaVuSans-6d" transform="translate(95.410156 0)"/>
     <use xlink:href="#DejaVuSans-6f" transform="translate(192.822266 0)"/>
     <use xlink:href="#DejaVuSans-64" transform="translate(254.003906 0)"/>
     <use xlink:href="#DejaVuSans-65" transform="translate(317.480469 0)"/>
     <use xlink:href="#DejaVuSans-6c" transform="translate(379.003906 0)"/>
     <use xlink:href="#DejaVuSans-73" transform="translate(406.787109 0)"/>
    </g>
   </g>
   <g id="text_13">
    <!-- Boosting -->
    <g transform="translate(617.091116 133.018535) scale(0.095 -0.095)">
     <use xlink:href="#DejaVuSans-Bold-42"/>
     <use xlink:href="#DejaVuSans-Bold-6f" transform="translate(76.220703 0)"/>
     <use xlink:href="#DejaVuSans-Bold-6f" transform="translate(144.921875 0)"/>
     <use xlink:href="#DejaVuSans-Bold-73" transform="translate(213.623047 0)"/>
     <use xlink:href="#DejaVuSans-Bold-74" transform="translate(273.144531 0)"/>
     <use xlink:href="#DejaVuSans-Bold-69" transform="translate(320.947266 0)"/>
     <use xlink:href="#DejaVuSans-Bold-6e" transform="translate(355.224609 0)"/>
     <use xlink:href="#DejaVuSans-Bold-67" transform="translate(426.416016 0)"/>
    </g>
    <!-- Tuning -->
    <g transform="translate(622.854945 143.730675) scale(0.095 -0.095)">
     <use xlink:href="#DejaVuSans-Bold-54"/>
     <use xlink:href="#DejaVuSans-Bold-75" transform="translate(57.212891 0)"/>
     <use xlink:href="#DejaVuSans-Bold-6e" transform="translate(128.404297 0)"/>
     <use xlink:href="#DejaVuSans-Bold-69" transform="translate(199.595703 0)"/>
     <use xlink:href="#DejaVuSans-Bold-6e" transform="translate(233.873047 0)"/>
     <use xlink:href="#DejaVuSans-Bold-67" transform="translate(305.064453 0)"/>
    </g>
   </g>
   <g id="text_14">
    <!-- LightGBM -->
    <g style="fill: #46515f" transform="translate(620.985937 172.231084) scale(0.082 -0.082)">
     <defs>
      <path id="DejaVuSans-4c" d="M 628 4666 
L 1259 4666 
L 1259 531 
L 3531 531 
L 3531 0 
L 628 0 
L 628 4666 
z
" transform="scale(0.015625)"/>
      <path id="DejaVuSans-47" d="M 3809 666 
L 3809 1919 
L 2778 1919 
L 2778 2438 
L 4434 2438 
L 4434 434 
Q 4069 175 3628 42 
Q 3188 -91 2688 -91 
Q 1594 -91 976 548 
Q 359 1188 359 2328 
Q 359 3472 976 4111 
Q 1594 4750 2688 4750 
Q 3144 4750 3555 4637 
Q 3966 4525 4313 4306 
L 4313 3634 
Q 3963 3931 3569 4081 
Q 3175 4231 2741 4231 
Q 1884 4231 1454 3753 
Q 1025 3275 1025 2328 
Q 1025 1384 1454 906 
Q 1884 428 2741 428 
Q 3075 428 3337 486 
Q 3600 544 3809 666 
z
" transform="scale(0.015625)"/>
      <path id="DejaVuSans-42" d="M 1259 2228 
L 1259 519 
L 2272 519 
Q 2781 519 3026 730 
Q 3272 941 3272 1375 
Q 3272 1813 3026 2020 
Q 2781 2228 2272 2228 
L 1259 2228 
z
M 1259 4147 
L 1259 2741 
L 2194 2741 
Q 2656 2741 2882 2914 
Q 3109 3088 3109 3444 
Q 3109 3797 2882 3972 
Q 2656 4147 2194 4147 
L 1259 4147 
z
M 628 4666 
L 2241 4666 
Q 2963 4666 3353 4366 
Q 3744 4066 3744 3513 
Q 3744 3084 3544 2831 
Q 3344 2578 2956 2516 
Q 3422 2416 3680 2098 
Q 3938 1781 3938 1306 
Q 3938 681 3513 340 
Q 3088 0 2303 0 
L 628 0 
L 628 4666 
z
" transform="scale(0.015625)"/>
      <path id="DejaVuSans-4d" d="M 628 4666 
L 1569 4666 
L 2759 1491 
L 3956 4666 
L 4897 4666 
L 4897 0 
L 4281 0 
L 4281 4097 
L 3078 897 
L 2444 897 
L 1241 4097 
L 1241 0 
L 628 0 
L 628 4666 
z
" transform="scale(0.015625)"/>
     </defs>
     <use xlink:href="#DejaVuSans-4c"/>
     <use xlink:href="#DejaVuSans-69" transform="translate(55.712891 0)"/>
     <use xlink:href="#DejaVuSans-67" transform="translate(83.496094 0)"/>
     <use xlink:href="#DejaVuSans-68" transform="translate(146.972656 0)"/>
     <use xlink:href="#DejaVuSans-74" transform="translate(210.351562 0)"/>
     <use xlink:href="#DejaVuSans-47" transform="translate(249.560547 0)"/>
     <use xlink:href="#DejaVuSans-42" transform="translate(327.050781 0)"/>
     <use xlink:href="#DejaVuSans-4d" transform="translate(395.654297 0)"/>
    </g>
    <!-- XGBoost -->
    <g style="fill: #46515f" transform="translate(623.186484 181.413291) scale(0.082 -0.082)">
     <defs>
      <path id="DejaVuSans-58" d="M 403 4666 
L 1081 4666 
L 2241 2931 
L 3406 4666 
L 4084 4666 
L 2584 2425 
L 4184 0 
L 3506 0 
L 2194 1984 
L 872 0 
L 191 0 
L 1856 2491 
L 403 4666 
z
" transform="scale(0.015625)"/>
     </defs>
     <use xlink:href="#DejaVuSans-58"/>
     <use xlink:href="#DejaVuSans-47" transform="translate(68.505859 0)"/>
     <use xlink:href="#DejaVuSans-42" transform="translate(145.996094 0)"/>
     <use xlink:href="#DejaVuSans-6f" transform="translate(214.599609 0)"/>
     <use xlink:href="#DejaVuSans-6f" transform="translate(275.78125 0)"/>
     <use xlink:href="#DejaVuSans-73" transform="translate(336.962891 0)"/>
     <use xlink:href="#DejaVuSans-74" transform="translate(389.0625 0)"/>
    </g>
   </g>
   <g id="text_15">
    <!-- Ablation &amp; -->
    <g transform="translate(710.318862 133.092753) scale(0.095 -0.095)">
     <defs>
      <path id="DejaVuSans-Bold-41" d="M 3419 850 
L 1538 850 
L 1241 0 
L 31 0 
L 1759 4666 
L 3194 4666 
L 4922 0 
L 3713 0 
L 3419 850 
z
M 1838 1716 
L 3116 1716 
L 2478 3572 
L 1838 1716 
z
" transform="scale(0.015625)"/>
      <path id="DejaVuSans-Bold-62" d="M 2400 722 
Q 2759 722 2948 984 
Q 3138 1247 3138 1747 
Q 3138 2247 2948 2509 
Q 2759 2772 2400 2772 
Q 2041 2772 1848 2508 
Q 1656 2244 1656 1747 
Q 1656 1250 1848 986 
Q 2041 722 2400 722 
z
M 1656 2988 
Q 1888 3294 2169 3439 
Q 2450 3584 2816 3584 
Q 3463 3584 3878 3070 
Q 4294 2556 4294 1747 
Q 4294 938 3878 423 
Q 3463 -91 2816 -91 
Q 2450 -91 2169 54 
Q 1888 200 1656 506 
L 1656 0 
L 538 0 
L 538 4863 
L 1656 4863 
L 1656 2988 
z
" transform="scale(0.015625)"/>
      <path id="DejaVuSans-Bold-26" d="M 2497 3097 
L 3775 1691 
Q 3941 1909 4027 2181 
Q 4113 2453 4128 2797 
L 5100 2797 
Q 5053 2228 4879 1784 
Q 4706 1341 4397 1006 
L 5313 0 
L 3988 0 
L 3681 341 
Q 3353 122 2990 15 
Q 2628 -91 2222 -91 
Q 1400 -91 892 342 
Q 384 775 384 1459 
Q 384 1916 607 2267 
Q 831 2619 1338 2950 
Q 1206 3116 1143 3281 
Q 1081 3447 1081 3628 
Q 1081 4138 1478 4444 
Q 1875 4750 2534 4750 
Q 2819 4750 3126 4704 
Q 3434 4659 3769 4569 
L 3769 3700 
Q 3475 3850 3212 3922 
Q 2950 3994 2700 3994 
Q 2459 3994 2326 3901 
Q 2194 3809 2194 3641 
Q 2194 3534 2270 3398 
Q 2347 3263 2497 3097 
z
M 1875 2322 
Q 1672 2175 1569 1989 
Q 1466 1803 1466 1581 
Q 1466 1222 1731 969 
Q 1997 716 2369 716 
Q 2578 716 2759 780 
Q 2941 844 3097 972 
L 1875 2322 
z
" transform="scale(0.015625)"/>
     </defs>
     <use xlink:href="#DejaVuSans-Bold-41"/>
     <use xlink:href="#DejaVuSans-Bold-62" transform="translate(77.392578 0)"/>
     <use xlink:href="#DejaVuSans-Bold-6c" transform="translate(148.974609 0)"/>
     <use xlink:href="#DejaVuSans-Bold-61" transform="translate(183.251953 0)"/>
     <use xlink:href="#DejaVuSans-Bold-74" transform="translate(250.732422 0)"/>
     <use xlink:href="#DejaVuSans-Bold-69" transform="translate(298.535156 0)"/>
     <use xlink:href="#DejaVuSans-Bold-6f" transform="translate(332.8125 0)"/>
     <use xlink:href="#DejaVuSans-Bold-6e" transform="translate(401.513672 0)"/>
     <use xlink:href="#DejaVuSans-Bold-20" transform="translate(472.705078 0)"/>
     <use xlink:href="#DejaVuSans-Bold-26" transform="translate(507.519531 0)"/>
    </g>
    <!-- Imbalance -->
    <g transform="translate(710.992768 143.730675) scale(0.095 -0.095)">
     <defs>
      <path id="DejaVuSans-Bold-49" d="M 588 4666 
L 1791 4666 
L 1791 0 
L 588 0 
L 588 4666 
z
" transform="scale(0.015625)"/>
      <path id="DejaVuSans-Bold-6d" d="M 3781 2919 
Q 3994 3244 4286 3414 
Q 4578 3584 4928 3584 
Q 5531 3584 5847 3212 
Q 6163 2841 6163 2131 
L 6163 0 
L 5038 0 
L 5038 1825 
Q 5041 1866 5042 1909 
Q 5044 1953 5044 2034 
Q 5044 2406 4934 2573 
Q 4825 2741 4581 2741 
Q 4263 2741 4089 2478 
Q 3916 2216 3909 1719 
L 3909 0 
L 2784 0 
L 2784 1825 
Q 2784 2406 2684 2573 
Q 2584 2741 2328 2741 
Q 2006 2741 1831 2477 
Q 1656 2213 1656 1722 
L 1656 0 
L 531 0 
L 531 3500 
L 1656 3500 
L 1656 2988 
Q 1863 3284 2130 3434 
Q 2397 3584 2719 3584 
Q 3081 3584 3359 3409 
Q 3638 3234 3781 2919 
z
" transform="scale(0.015625)"/>
     </defs>
     <use xlink:href="#DejaVuSans-Bold-49"/>
     <use xlink:href="#DejaVuSans-Bold-6d" transform="translate(37.207031 0)"/>
     <use xlink:href="#DejaVuSans-Bold-62" transform="translate(141.40625 0)"/>
     <use xlink:href="#DejaVuSans-Bold-61" transform="translate(212.988281 0)"/>
     <use xlink:href="#DejaVuSans-Bold-6c" transform="translate(280.46875 0)"/>
     <use xlink:href="#DejaVuSans-Bold-61" transform="translate(314.746094 0)"/>
     <use xlink:href="#DejaVuSans-Bold-6e" transform="translate(382.226562 0)"/>
     <use xlink:href="#DejaVuSans-Bold-63" transform="translate(453.417969 0)"/>
     <use xlink:href="#DejaVuSans-Bold-65" transform="translate(512.695312 0)"/>
    </g>
   </g>
   <g id="text_16">
    <!-- BoF/Shape -->
    <g style="fill: #46515f" transform="translate(716.667596 172.231084) scale(0.082 -0.082)">
     <defs>
      <path id="DejaVuSans-53" d="M 3425 4513 
L 3425 3897 
Q 3066 4069 2747 4153 
Q 2428 4238 2131 4238 
Q 1616 4238 1336 4038 
Q 1056 3838 1056 3469 
Q 1056 3159 1242 3001 
Q 1428 2844 1947 2747 
L 2328 2669 
Q 3034 2534 3370 2195 
Q 3706 1856 3706 1288 
Q 3706 609 3251 259 
Q 2797 -91 1919 -91 
Q 1588 -91 1214 -16 
Q 841 59 441 206 
L 441 856 
Q 825 641 1194 531 
Q 1563 422 1919 422 
Q 2459 422 2753 634 
Q 3047 847 3047 1241 
Q 3047 1584 2836 1778 
Q 2625 1972 2144 2069 
L 1759 2144 
Q 1053 2284 737 2584 
Q 422 2884 422 3419 
Q 422 4038 858 4394 
Q 1294 4750 2059 4750 
Q 2388 4750 2728 4690 
Q 3069 4631 3425 4513 
z
" transform="scale(0.015625)"/>
      <path id="DejaVuSans-70" d="M 1159 525 
L 1159 -1331 
L 581 -1331 
L 581 3500 
L 1159 3500 
L 1159 2969 
Q 1341 3281 1617 3432 
Q 1894 3584 2278 3584 
Q 2916 3584 3314 3078 
Q 3713 2572 3713 1747 
Q 3713 922 3314 415 
Q 2916 -91 2278 -91 
Q 1894 -91 1617 61 
Q 1341 213 1159 525 
z
M 3116 1747 
Q 3116 2381 2855 2742 
Q 2594 3103 2138 3103 
Q 1681 3103 1420 2742 
Q 1159 2381 1159 1747 
Q 1159 1113 1420 752 
Q 1681 391 2138 391 
Q 2594 391 2855 752 
Q 3116 1113 3116 1747 
z
" transform="scale(0.015625)"/>
     </defs>
     <use xlink:href="#DejaVuSans-42"/>
     <use xlink:href="#DejaVuSans-6f" transform="translate(68.603516 0)"/>
     <use xlink:href="#DejaVuSans-46" transform="translate(129.785156 0)"/>
     <use xlink:href="#DejaVuSans-2f" transform="translate(187.304688 0)"/>
     <use xlink:href="#DejaVuSans-53" transform="translate(220.996094 0)"/>
     <use xlink:href="#DejaVuSans-68" transform="translate(284.472656 0)"/>
     <use xlink:href="#DejaVuSans-61" transform="translate(347.851562 0)"/>
     <use xlink:href="#DejaVuSans-70" transform="translate(409.130859 0)"/>
     <use xlink:href="#DejaVuSans-65" transform="translate(472.607422 0)"/>
    </g>
    <!-- weights -->
    <g style="fill: #46515f" transform="translate(722.608752 181.413291) scale(0.082 -0.082)">
     <defs>
      <path id="DejaVuSans-77" d="M 269 3500 
L 844 3500 
L 1563 769 
L 2278 3500 
L 2956 3500 
L 3675 769 
L 4391 3500 
L 4966 3500 
L 4050 0 
L 3372 0 
L 2619 2869 
L 1863 0 
L 1184 0 
L 269 3500 
z
" transform="scale(0.015625)"/>
     </defs>
     <use xlink:href="#DejaVuSans-77"/>
     <use xlink:href="#DejaVuSans-65" transform="translate(81.787109 0)"/>
     <use xlink:href="#DejaVuSans-69" transform="translate(143.310547 0)"/>
     <use xlink:href="#DejaVuSans-67" transform="translate(171.09375 0)"/>
     <use xlink:href="#DejaVuSans-68" transform="translate(234.570312 0)"/>
     <use xlink:href="#DejaVuSans-74" transform="translate(297.949219 0)"/>
     <use xlink:href="#DejaVuSans-73" transform="translate(337.158203 0)"/>
    </g>
   </g>
   <g id="text_17">
    <!-- Stacking -->
    <g transform="translate(813.109693 138.374605) scale(0.095 -0.095)">
     <defs>
      <path id="DejaVuSans-Bold-6b" d="M 538 4863 
L 1656 4863 
L 1656 2216 
L 2944 3500 
L 4244 3500 
L 2534 1894 
L 4378 0 
L 3022 0 
L 1656 1459 
L 1656 0 
L 538 0 
L 538 4863 
z
" transform="scale(0.015625)"/>
     </defs>
     <use xlink:href="#DejaVuSans-Bold-53"/>
     <use xlink:href="#DejaVuSans-Bold-74" transform="translate(72.021484 0)"/>
     <use xlink:href="#DejaVuSans-Bold-61" transform="translate(119.824219 0)"/>
     <use xlink:href="#DejaVuSans-Bold-63" transform="translate(187.304688 0)"/>
     <use xlink:href="#DejaVuSans-Bold-6b" transform="translate(246.582031 0)"/>
     <use xlink:href="#DejaVuSans-Bold-69" transform="translate(313.085938 0)"/>
     <use xlink:href="#DejaVuSans-Bold-6e" transform="translate(347.363281 0)"/>
     <use xlink:href="#DejaVuSans-Bold-67" transform="translate(418.554688 0)"/>
    </g>
   </g>
   <g id="text_18">
    <!-- Garbage Net -->
    <g style="fill: #46515f" transform="translate(810.274271 172.231084) scale(0.082 -0.082)">
     <defs>
      <path id="DejaVuSans-4e" d="M 628 4666 
L 1478 4666 
L 3547 763 
L 3547 4666 
L 4159 4666 
L 4159 0 
L 3309 0 
L 1241 3903 
L 1241 0 
L 628 0 
L 628 4666 
z
" transform="scale(0.015625)"/>
     </defs>
     <use xlink:href="#DejaVuSans-47"/>
     <use xlink:href="#DejaVuSans-61" transform="translate(77.490234 0)"/>
     <use xlink:href="#DejaVuSans-72" transform="translate(138.769531 0)"/>
     <use xlink:href="#DejaVuSans-62" transform="translate(179.882812 0)"/>
     <use xlink:href="#DejaVuSans-61" transform="translate(243.359375 0)"/>
     <use xlink:href="#DejaVuSans-67" transform="translate(304.638672 0)"/>
     <use xlink:href="#DejaVuSans-65" transform="translate(368.115234 0)"/>
     <use xlink:href="#DejaVuSans-20" transform="translate(429.638672 0)"/>
     <use xlink:href="#DejaVuSans-4e" transform="translate(461.425781 0)"/>
     <use xlink:href="#DejaVuSans-65" transform="translate(536.230469 0)"/>
     <use xlink:href="#DejaVuSans-74" transform="translate(597.753906 0)"/>
    </g>
    <!-- 6 base models -->
    <g style="fill: #46515f" transform="translate(806.499068 181.413291) scale(0.082 -0.082)">
     <use xlink:href="#DejaVuSans-36"/>
     <use xlink:href="#DejaVuSans-20" transform="translate(63.623047 0)"/>
     <use xlink:href="#DejaVuSans-62" transform="translate(95.410156 0)"/>
     <use xlink:href="#DejaVuSans-61" transform="translate(158.886719 0)"/>
     <use xlink:href="#DejaVuSans-73" transform="translate(220.166016 0)"/>
     <use xlink:href="#DejaVuSans-65" transform="translate(272.265625 0)"/>
     <use xlink:href="#DejaVuSans-20" transform="translate(333.789062 0)"/>
     <use xlink:href="#DejaVuSans-6d" transform="translate(365.576172 0)"/>
     <use xlink:href="#DejaVuSans-6f" transform="translate(462.988281 0)"/>
     <use xlink:href="#DejaVuSans-64" transform="translate(524.169922 0)"/>
     <use xlink:href="#DejaVuSans-65" transform="translate(587.646484 0)"/>
     <use xlink:href="#DejaVuSans-6c" transform="translate(649.169922 0)"/>
     <use xlink:href="#DejaVuSans-73" transform="translate(676.953125 0)"/>
    </g>
   </g>
   <g id="text_19">
    <!-- Final Test -->
    <g transform="translate(908.540993 133.055644) scale(0.095 -0.095)">
     <use xlink:href="#DejaVuSans-Bold-46"/>
     <use xlink:href="#DejaVuSans-Bold-69" transform="translate(68.310547 0)"/>
     <use xlink:href="#DejaVuSans-Bold-6e" transform="translate(102.587891 0)"/>
     <use xlink:href="#DejaVuSans-Bold-61" transform="translate(173.779297 0)"/>
     <use xlink:href="#DejaVuSans-Bold-6c" transform="translate(241.259766 0)"/>
     <use xlink:href="#DejaVuSans-Bold-20" transform="translate(275.537109 0)"/>
     <use xlink:href="#DejaVuSans-Bold-54" transform="translate(310.351562 0)"/>
     <use xlink:href="#DejaVuSans-Bold-65" transform="translate(365.314453 0)"/>
     <use xlink:href="#DejaVuSans-Bold-73" transform="translate(433.136719 0)"/>
     <use xlink:href="#DejaVuSans-Bold-74" transform="translate(492.658203 0)"/>
    </g>
    <!-- Error Analysis -->
    <g transform="translate(896.754313 143.693566) scale(0.095 -0.095)">
     <defs>
      <path id="DejaVuSans-Bold-79" d="M 78 3500 
L 1197 3500 
L 2138 1125 
L 2938 3500 
L 4056 3500 
L 2584 -331 
Q 2363 -916 2067 -1148 
Q 1772 -1381 1288 -1381 
L 641 -1381 
L 641 -647 
L 991 -647 
Q 1275 -647 1404 -556 
Q 1534 -466 1606 -231 
L 1638 -134 
L 78 3500 
z
" transform="scale(0.015625)"/>
     </defs>
     <use xlink:href="#DejaVuSans-Bold-45"/>
     <use xlink:href="#DejaVuSans-Bold-72" transform="translate(68.310547 0)"/>
     <use xlink:href="#DejaVuSans-Bold-72" transform="translate(117.626953 0)"/>
     <use xlink:href="#DejaVuSans-Bold-6f" transform="translate(166.943359 0)"/>
     <use xlink:href="#DejaVuSans-Bold-72" transform="translate(235.644531 0)"/>
     <use xlink:href="#DejaVuSans-Bold-20" transform="translate(284.960938 0)"/>
     <use xlink:href="#DejaVuSans-Bold-41" transform="translate(319.775391 0)"/>
     <use xlink:href="#DejaVuSans-Bold-6e" transform="translate(397.167969 0)"/>
     <use xlink:href="#DejaVuSans-Bold-61" transform="translate(468.359375 0)"/>
     <use xlink:href="#DejaVuSans-Bold-6c" transform="translate(535.839844 0)"/>
     <use xlink:href="#DejaVuSans-Bold-79" transform="translate(570.117188 0)"/>
     <use xlink:href="#DejaVuSans-Bold-73" transform="translate(635.302734 0)"/>
     <use xlink:href="#DejaVuSans-Bold-69" transform="translate(694.824219 0)"/>
     <use xlink:href="#DejaVuSans-Bold-73" transform="translate(729.101562 0)"/>
    </g>
   </g>
   <g id="text_20">
    <!-- macro-F1 -->
    <g style="fill: #46515f" transform="translate(914.827946 172.231084) scale(0.082 -0.082)">
     <use xlink:href="#DejaVuSans-6d"/>
     <use xlink:href="#DejaVuSans-61" transform="translate(97.412109 0)"/>
     <use xlink:href="#DejaVuSans-63" transform="translate(158.691406 0)"/>
     <use xlink:href="#DejaVuSans-72" transform="translate(213.671875 0)"/>
     <use xlink:href="#DejaVuSans-6f" transform="translate(252.535156 0)"/>
     <use xlink:href="#DejaVuSans-2d" transform="translate(315.591797 0)"/>
     <use xlink:href="#DejaVuSans-46" transform="translate(351.675781 0)"/>
     <use xlink:href="#DejaVuSans-31" transform="translate(409.195312 0)"/>
    </g>
    <!-- 0.8097 -->
    <g style="fill: #46515f" transform="translate(919.867102 181.413291) scale(0.082 -0.082)">
     <defs>
      <path id="DejaVuSans-2e" d="M 684 794 
L 1344 794 
L 1344 0 
L 684 0 
L 684 794 
z
" transform="scale(0.015625)"/>
      <path id="DejaVuSans-38" d="M 2034 2216 
Q 1584 2216 1326 1975 
Q 1069 1734 1069 1313 
Q 1069 891 1326 650 
Q 1584 409 2034 409 
Q 2484 409 2743 651 
Q 3003 894 3003 1313 
Q 3003 1734 2745 1975 
Q 2488 2216 2034 2216 
z
M 1403 2484 
Q 997 2584 770 2862 
Q 544 3141 544 3541 
Q 544 4100 942 4425 
Q 1341 4750 2034 4750 
Q 2731 4750 3128 4425 
Q 3525 4100 3525 3541 
Q 3525 3141 3298 2862 
Q 3072 2584 2669 2484 
Q 3125 2378 3379 2068 
Q 3634 1759 3634 1313 
Q 3634 634 3220 271 
Q 2806 -91 2034 -91 
Q 1263 -91 848 271 
Q 434 634 434 1313 
Q 434 1759 690 2068 
Q 947 2378 1403 2484 
z
M 1172 3481 
Q 1172 3119 1398 2916 
Q 1625 2713 2034 2713 
Q 2441 2713 2670 2916 
Q 2900 3119 2900 3481 
Q 2900 3844 2670 4047 
Q 2441 4250 2034 4250 
Q 1625 4250 1398 4047 
Q 1172 3844 1172 3481 
z
" transform="scale(0.015625)"/>
     </defs>
     <use xlink:href="#DejaVuSans-30"/>
     <use xlink:href="#DejaVuSans-2e" transform="translate(63.623047 0)"/>
     <use xlink:href="#DejaVuSans-38" transform="translate(95.410156 0)"/>
     <use xlink:href="#DejaVuSans-30" transform="translate(159.033203 0)"/>
     <use xlink:href="#DejaVuSans-39" transform="translate(222.65625 0)"/>
     <use xlink:href="#DejaVuSans-37" transform="translate(286.279297 0)"/>
    </g>
   </g>
   <g id="text_21">
    <!-- Garbage Net Modeling Workflow -->
    <g style="fill: #202733" transform="translate(12.954272 40.386469) scale(0.15 -0.15)">
     <defs>
      <path id="DejaVuSans-Bold-47" d="M 4781 347 
Q 4331 128 3847 18 
Q 3363 -91 2847 -91 
Q 1681 -91 1000 561 
Q 319 1213 319 2328 
Q 319 3456 1012 4103 
Q 1706 4750 2913 4750 
Q 3378 4750 3804 4662 
Q 4231 4575 4609 4403 
L 4609 3438 
Q 4219 3659 3833 3768 
Q 3447 3878 3059 3878 
Q 2341 3878 1952 3476 
Q 1563 3075 1563 2328 
Q 1563 1588 1938 1184 
Q 2313 781 3003 781 
Q 3191 781 3352 804 
Q 3513 828 3641 878 
L 3641 1784 
L 2906 1784 
L 2906 2591 
L 4781 2591 
L 4781 347 
z
" transform="scale(0.015625)"/>
      <path id="DejaVuSans-Bold-4e" d="M 588 4666 
L 1931 4666 
L 3628 1466 
L 3628 4666 
L 4769 4666 
L 4769 0 
L 3425 0 
L 1728 3200 
L 1728 0 
L 588 0 
L 588 4666 
z
" transform="scale(0.015625)"/>
      <path id="DejaVuSans-Bold-4d" d="M 588 4666 
L 2119 4666 
L 3181 2169 
L 4250 4666 
L 5778 4666 
L 5778 0 
L 4641 0 
L 4641 3413 
L 3566 897 
L 2803 897 
L 1728 3413 
L 1728 0 
L 588 0 
L 588 4666 
z
" transform="scale(0.015625)"/>
      <path id="DejaVuSans-Bold-57" d="M 191 4666 
L 1344 4666 
L 2150 1275 
L 2950 4666 
L 4109 4666 
L 4909 1275 
L 5716 4666 
L 6859 4666 
L 5759 0 
L 4372 0 
L 3525 3547 
L 2688 0 
L 1300 0 
L 191 4666 
z
" transform="scale(0.015625)"/>
      <path id="DejaVuSans-Bold-66" d="M 2841 4863 
L 2841 4128 
L 2222 4128 
Q 1984 4128 1890 4042 
Q 1797 3956 1797 3744 
L 1797 3500 
L 2753 3500 
L 2753 2700 
L 1797 2700 
L 1797 0 
L 678 0 
L 678 2700 
L 122 2700 
L 122 3500 
L 678 3500 
L 678 3744 
Q 678 4316 997 4589 
Q 1316 4863 1984 4863 
L 2841 4863 
z
" transform="scale(0.015625)"/>
     </defs>
     <use xlink:href="#DejaVuSans-Bold-47"/>
     <use xlink:href="#DejaVuSans-Bold-61" transform="translate(82.080078 0)"/>
     <use xlink:href="#DejaVuSans-Bold-72" transform="translate(149.560547 0)"/>
     <use xlink:href="#DejaVuSans-Bold-62" transform="translate(198.876953 0)"/>
     <use xlink:href="#DejaVuSans-Bold-61" transform="translate(270.458984 0)"/>
     <use xlink:href="#DejaVuSans-Bold-67" transform="translate(337.939453 0)"/>
     <use xlink:href="#DejaVuSans-Bold-65" transform="translate(409.521484 0)"/>
     <use xlink:href="#DejaVuSans-Bold-20" transform="translate(477.34375 0)"/>
     <use xlink:href="#DejaVuSans-Bold-4e" transform="translate(512.158203 0)"/>
     <use xlink:href="#DejaVuSans-Bold-65" transform="translate(595.849609 0)"/>
     <use xlink:href="#DejaVuSans-Bold-74" transform="translate(663.671875 0)"/>
     <use xlink:href="#DejaVuSans-Bold-20" transform="translate(711.474609 0)"/>
     <use xlink:href="#DejaVuSans-Bold-4d" transform="translate(746.289062 0)"/>
     <use xlink:href="#DejaVuSans-Bold-6f" transform="translate(845.800781 0)"/>
     <use xlink:href="#DejaVuSans-Bold-64" transform="translate(914.501953 0)"/>
     <use xlink:href="#DejaVuSans-Bold-65" transform="translate(986.083984 0)"/>
     <use xlink:href="#DejaVuSans-Bold-6c" transform="translate(1053.90625 0)"/>
     <use xlink:href="#DejaVuSans-Bold-69" transform="translate(1088.183594 0)"/>
     <use xlink:href="#DejaVuSans-Bold-6e" transform="translate(1122.460938 0)"/>
     <use xlink:href="#DejaVuSans-Bold-67" transform="translate(1193.652344 0)"/>
     <use xlink:href="#DejaVuSans-Bold-20" transform="translate(1265.234375 0)"/>
     <use xlink:href="#DejaVuSans-Bold-57" transform="translate(1300.048828 0)"/>
     <use xlink:href="#DejaVuSans-Bold-6f" transform="translate(1406.726562 0)"/>
     <use xlink:href="#DejaVuSans-Bold-72" transform="translate(1475.427734 0)"/>
     <use xlink:href="#DejaVuSans-Bold-6b" transform="translate(1524.744141 0)"/>
     <use xlink:href="#DejaVuSans-Bold-66" transform="translate(1591.248047 0)"/>
     <use xlink:href="#DejaVuSans-Bold-6c" transform="translate(1634.753906 0)"/>
     <use xlink:href="#DejaVuSans-Bold-6f" transform="translate(1669.03125 0)"/>
     <use xlink:href="#DejaVuSans-Bold-77" transform="translate(1737.732422 0)"/>
    </g>
   </g>
   <g id="text_22">
    <!-- Validation is used for model selection; test is used once after the final model is fixed. -->
    <g style="fill: #46515f" transform="translate(12.954272 78.358475) scale(0.1 -0.1)">
     <defs>
      <path id="DejaVuSans-56" d="M 1831 0 
L 50 4666 
L 709 4666 
L 2188 738 
L 3669 4666 
L 4325 4666 
L 2547 0 
L 1831 0 
z
" transform="scale(0.015625)"/>
      <path id="DejaVuSans-3b" d="M 750 3309 
L 1409 3309 
L 1409 2516 
L 750 2516 
L 750 3309 
z
M 750 794 
L 1409 794 
L 1409 256 
L 897 -744 
L 494 -744 
L 750 256 
L 750 794 
z
" transform="scale(0.015625)"/>
     </defs>
     <use xlink:href="#DejaVuSans-56"/>
     <use xlink:href="#DejaVuSans-61" transform="translate(60.658203 0)"/>
     <use xlink:href="#DejaVuSans-6c" transform="translate(121.9375 0)"/>
     <use xlink:href="#DejaVuSans-69" transform="translate(149.720703 0)"/>
     <use xlink:href="#DejaVuSans-64" transform="translate(177.503906 0)"/>
     <use xlink:href="#DejaVuSans-61" transform="translate(240.980469 0)"/>
     <use xlink:href="#DejaVuSans-74" transform="translate(302.259766 0)"/>
     <use xlink:href="#DejaVuSans-69" transform="translate(341.46875 0)"/>
     <use xlink:href="#DejaVuSans-6f" transform="translate(369.251953 0)"/>
     <use xlink:href="#DejaVuSans-6e" transform="translate(430.433594 0)"/>
     <use xlink:href="#DejaVuSans-20" transform="translate(493.8125 0)"/>
     <use xlink:href="#DejaVuSans-69" transform="translate(525.599609 0)"/>
     <use xlink:href="#DejaVuSans-73" transform="translate(553.382812 0)"/>
     <use xlink:href="#DejaVuSans-20" transform="translate(605.482422 0)"/>
     <use xlink:href="#DejaVuSans-75" transform="translate(637.269531 0)"/>
     <use xlink:href="#DejaVuSans-73" transform="translate(700.648438 0)"/>
     <use xlink:href="#DejaVuSans-65" transform="translate(752.748047 0)"/>
     <use xlink:href="#DejaVuSans-64" transform="translate(814.271484 0)"/>
     <use xlink:href="#DejaVuSans-20" transform="translate(877.748047 0)"/>
     <use xlink:href="#DejaVuSans-66" transform="translate(909.535156 0)"/>
     <use xlink:href="#DejaVuSans-6f" transform="translate(944.740234 0)"/>
     <use xlink:href="#DejaVuSans-72" transform="translate(1005.921875 0)"/>
     <use xlink:href="#DejaVuSans-20" transform="translate(1047.035156 0)"/>
     <use xlink:href="#DejaVuSans-6d" transform="translate(1078.822266 0)"/>
     <use xlink:href="#DejaVuSans-6f" transform="translate(1176.234375 0)"/>
     <use xlink:href="#DejaVuSans-64" transform="translate(1237.416016 0)"/>
     <use xlink:href="#DejaVuSans-65" transform="translate(1300.892578 0)"/>
     <use xlink:href="#DejaVuSans-6c" transform="translate(1362.416016 0)"/>
     <use xlink:href="#DejaVuSans-20" transform="translate(1390.199219 0)"/>
     <use xlink:href="#DejaVuSans-73" transform="translate(1421.986328 0)"/>
     <use xlink:href="#DejaVuSans-65" transform="translate(1474.085938 0)"/>
     <use xlink:href="#DejaVuSans-6c" transform="translate(1535.609375 0)"/>
     <use xlink:href="#DejaVuSans-65" transform="translate(1563.392578 0)"/>
     <use xlink:href="#DejaVuSans-63" transform="translate(1624.916016 0)"/>
     <use xlink:href="#DejaVuSans-74" transform="translate(1679.896484 0)"/>
     <use xlink:href="#DejaVuSans-69" transform="translate(1719.105469 0)"/>
     <use xlink:href="#DejaVuSans-6f" transform="translate(1746.888672 0)"/>
     <use xlink:href="#DejaVuSans-6e" transform="translate(1808.070312 0)"/>
     <use xlink:href="#DejaVuSans-3b" transform="translate(1871.449219 0)"/>
     <use xlink:href="#DejaVuSans-20" transform="translate(1905.140625 0)"/>
     <use xlink:href="#DejaVuSans-74" transform="translate(1936.927734 0)"/>
     <use xlink:href="#DejaVuSans-65" transform="translate(1976.136719 0)"/>
     <use xlink:href="#DejaVuSans-73" transform="translate(2037.660156 0)"/>
     <use xlink:href="#DejaVuSans-74" transform="translate(2089.759766 0)"/>
     <use xlink:href="#DejaVuSans-20" transform="translate(2128.96875 0)"/>
     <use xlink:href="#DejaVuSans-69" transform="translate(2160.755859 0)"/>
     <use xlink:href="#DejaVuSans-73" transform="translate(2188.539062 0)"/>
     <use xlink:href="#DejaVuSans-20" transform="translate(2240.638672 0)"/>
     <use xlink:href="#DejaVuSans-75" transform="translate(2272.425781 0)"/>
     <use xlink:href="#DejaVuSans-73" transform="translate(2335.804688 0)"/>
     <use xlink:href="#DejaVuSans-65" transform="translate(2387.904297 0)"/>
     <use xlink:href="#DejaVuSans-64" transform="translate(2449.427734 0)"/>
     <use xlink:href="#DejaVuSans-20" transform="translate(2512.904297 0)"/>
     <use xlink:href="#DejaVuSans-6f" transform="translate(2544.691406 0)"/>
     <use xlink:href="#DejaVuSans-6e" transform="translate(2605.873047 0)"/>
     <use xlink:href="#DejaVuSans-63" transform="translate(2669.251953 0)"/>
     <use xlink:href="#DejaVuSans-65" transform="translate(2724.232422 0)"/>
     <use xlink:href="#DejaVuSans-20" transform="translate(2785.755859 0)"/>
     <use xlink:href="#DejaVuSans-61" transform="translate(2817.542969 0)"/>
     <use xlink:href="#DejaVuSans-66" transform="translate(2878.822266 0)"/>
     <use xlink:href="#DejaVuSans-74" transform="translate(2912.277344 0)"/>
     <use xlink:href="#DejaVuSans-65" transform="translate(2951.486328 0)"/>
     <use xlink:href="#DejaVuSans-72" transform="translate(3013.009766 0)"/>
     <use xlink:href="#DejaVuSans-20" transform="translate(3054.123047 0)"/>
     <use xlink:href="#DejaVuSans-74" transform="translate(3085.910156 0)"/>
     <use xlink:href="#DejaVuSans-68" transform="translate(3125.119141 0)"/>
     <use xlink:href="#DejaVuSans-65" transform="translate(3188.498047 0)"/>
     <use xlink:href="#DejaVuSans-20" transform="translate(3250.021484 0)"/>
     <use xlink:href="#DejaVuSans-66" transform="translate(3281.808594 0)"/>
     <use xlink:href="#DejaVuSans-69" transform="translate(3317.013672 0)"/>
     <use xlink:href="#DejaVuSans-6e" transform="translate(3344.796875 0)"/>
     <use xlink:href="#DejaVuSans-61" transform="translate(3408.175781 0)"/>
     <use xlink:href="#DejaVuSans-6c" transform="translate(3469.455078 0)"/>
     <use xlink:href="#DejaVuSans-20" transform="translate(3497.238281 0)"/>
     <use xlink:href="#DejaVuSans-6d" transform="translate(3529.025391 0)"/>
     <use xlink:href="#DejaVuSans-6f" transform="translate(3626.4375 0)"/>
     <use xlink:href="#DejaVuSans-64" transform="translate(3687.619141 0)"/>
     <use xlink:href="#DejaVuSans-65" transform="translate(3751.095703 0)"/>
     <use xlink:href="#DejaVuSans-6c" transform="translate(3812.619141 0)"/>
     <use xlink:href="#DejaVuSans-20" transform="translate(3840.402344 0)"/>
     <use xlink:href="#DejaVuSans-69" transform="translate(3872.189453 0)"/>
     <use xlink:href="#DejaVuSans-73" transform="translate(3899.972656 0)"/>
     <use xlink:href="#DejaVuSans-20" transform="translate(3952.072266 0)"/>
     <use xlink:href="#DejaVuSans-66" transform="translate(3983.859375 0)"/>
     <use xlink:href="#DejaVuSans-69" transform="translate(4019.064453 0)"/>
     <use xlink:href="#DejaVuSans-78" transform="translate(4046.847656 0)"/>
     <use xlink:href="#DejaVuSans-65" transform="translate(4102.902344 0)"/>
     <use xlink:href="#DejaVuSans-64" transform="translate(4164.425781 0)"/>
     <use xlink:href="#DejaVuSans-2e" transform="translate(4227.902344 0)"/>
    </g>
   </g>
  </g>
 </g>
 <defs>
  <clipPath id="pfb23797b26">
   <rect x="7.2" y="7.2" width="976.5" height="232.848"/>
  </clipPath>
 </defs>
</svg>
